<?xml version="1.0" encoding="UTF-8"?>
<svg version="1.1" xmlns="http://www.w3.org/2000/svg" width="1024" height="1024">
<path d="M0 0 C337.92 0 675.84 0 1024 0 C1024 337.92 1024 675.84 1024 1024 C686.08 1024 348.16 1024 0 1024 C0 686.08 0 348.16 0 0 Z " fill="#FEFEFE" transform="translate(0,0)"/>
<path d="M0 0 C1.03080185 0.00081573 1.03080185 0.00081573 2.08242798 0.00164795 C12.54264483 0.03974883 22.04600843 0.57445659 31.875 4.375 C32.92816406 4.77589844 33.98132813 5.17679687 35.06640625 5.58984375 C43.45587328 9.28635221 49.45339108 15.01901336 55.875 21.375 C56.52082031 21.96023437 57.16664063 22.54546875 57.83203125 23.1484375 C67.65120448 32.20875191 74.61513741 44.66603406 80.625 56.4375 C81.12891266 57.4170163 81.12891266 57.4170163 81.64300537 58.4163208 C90.20197071 75.16647367 96.63997776 92.65610699 102.875 110.375 C103.31906189 111.63105042 103.31906189 111.63105042 103.77209473 112.91247559 C110.94998831 133.22332025 117.7579673 153.62574715 123.85644531 174.28808594 C124.41477051 176.17962402 124.41477051 176.17962402 124.984375 178.109375 C125.46342285 179.75244629 125.46342285 179.75244629 125.95214844 181.42871094 C127.43972274 186.91160825 127.43972274 186.91160825 131.0625 190.96484375 C136.74650735 193.68843061 142.43301681 195.9688712 148.4375 197.875 C235.8693666 225.6414407 235.8693666 225.6414407 247.234375 244.6484375 C250.52874751 251.8012874 251.37362563 258.86156108 248.875 266.38671875 C236.73886869 293.31376009 199.1324372 309.2352899 174.73242188 322.78759766 C171.83380402 324.39788587 168.94028316 326.01709213 166.046875 327.63671875 C164.21912282 328.65431575 162.39101337 329.67127141 160.5625 330.6875 C159.71421631 331.16203613 158.86593262 331.63657227 157.99194336 332.12548828 C157.21471924 332.55458496 156.43749512 332.98368164 155.63671875 333.42578125 C154.95569092 333.80387939 154.27466309 334.18197754 153.57299805 334.5715332 C151.875 335.375 151.875 335.375 149.875 335.375 C149.89165459 336.37614838 149.89165459 336.37614838 149.90864563 337.39752197 C150.54327623 377.78248948 149.64143364 417.9756041 147.5625 458.3125 C147.50881382 459.36613235 147.45512764 460.41976471 147.39981461 461.50532532 C145.57773069 497.24853173 143.71617536 533.10491695 139.75 568.6875 C139.65095367 569.57961182 139.55190735 570.47172363 139.44985962 571.39086914 C135.7534991 603.76180056 127.38538932 634.67413821 109.875 662.375 C110.52992432 662.61943848 111.18484863 662.86387695 111.85961914 663.11572266 C115.71842051 664.72722759 119.40281107 666.61354601 123.12109375 668.5234375 C123.9198291 668.93185379 124.71856445 669.34027008 125.54150391 669.76106262 C128.13329647 671.08788156 130.72307353 672.41856988 133.3125 673.75 C134.19857941 674.20484772 135.08465881 674.65969543 135.99758911 675.12832642 C146.66171778 680.60518572 157.29252235 686.12536019 167.78320312 691.92944336 C175.04620718 695.94582851 182.37541228 699.82894875 189.71432495 703.70410156 C245.76098212 733.31174906 245.76098212 733.31174906 250.24609375 743.2578125 C251.37397068 747.05476464 250.8834922 749.53012347 249.875 753.375 C248.1875 756.375 248.1875 756.375 245.875 758.375 C240.86908764 758.94547434 237.83595495 757.69155289 233.4375 755.375 C232.7770166 755.03178711 232.1165332 754.68857422 231.43603516 754.33496094 C229.86168378 753.51633946 228.289974 752.69262762 226.72021484 751.86523438 C223.39351169 750.12281151 220.05110807 748.41185618 216.70703125 746.703125 C204.17920581 740.29307897 191.6991695 733.815431 179.37255859 727.02441406 C171.25141156 722.5560623 163.0666551 718.21217273 154.875 713.875 C144.4680869 708.36428008 134.08744995 702.81245365 123.7734375 697.12890625 C118.85963391 694.42710428 113.90689409 691.8505534 108.875 689.375 C111.69301442 696.6998318 114.89621682 703.7825184 118.25 710.875 C125.40914625 726.19843843 131.78277608 741.82869237 138.11865234 757.50628662 C139.23012699 760.2524147 140.34999532 762.99511253 141.46875 765.73828125 C142.1882432 767.51271967 142.90706357 769.28743115 143.625 771.0625 C143.93598633 771.82675293 144.24697266 772.59100586 144.56738281 773.37841797 C147.84627702 781.56441156 151.41112012 790.82827132 148.03515625 799.54296875 C146.78912647 801.64485738 145.42256996 803.48394501 143.875 805.375 C143.30523438 806.09300781 142.73546875 806.81101562 142.1484375 807.55078125 C137.76990296 812.76718351 132.87336887 816.9683592 127.53515625 821.17578125 C125.08738425 823.19941655 122.97034821 825.30149879 120.8125 827.625 C115.84875322 832.70040571 109.8018096 836.51486611 102.5625 836.9375 C98.34129245 836.29358698 96.58774893 835.68116275 93.875 832.375 C92.85151333 826.46152146 94.86057662 822.30507949 97.875 817.375 C99.67640959 815.1906532 101.67532402 813.30707929 103.76953125 811.40625 C104.90105304 810.33012317 106.03189304 809.25327907 107.16210938 808.17578125 C108.92926318 806.51434617 110.7026974 804.86104038 112.48901367 803.22021484 C114.22765121 801.61469584 115.93683328 799.98205313 117.64453125 798.34375 C118.1839888 797.86329224 118.72344635 797.38283447 119.2792511 796.88781738 C121.00860257 795.3002235 121.00860257 795.3002235 122.875 792.375 C122.86907213 786.7881583 121.29673629 782.13713259 119.171875 776.9921875 C118.76078995 775.96589485 118.76078995 775.96589485 118.34140015 774.91886902 C117.44573576 772.69180527 116.53587312 770.47088185 115.625 768.25 C114.99291487 766.68953855 114.3612474 765.12890786 113.72998047 763.56811523 C109.1196378 752.21626676 104.29901306 740.95984686 99.37915039 729.73925781 C94.9850254 719.70374027 90.85010985 709.58298603 86.875 699.375 C86.45452393 699.74214111 86.03404785 700.10928223 85.60083008 700.48754883 C80.76464906 704.67623563 75.77143078 708.61489723 70.68554688 712.49414062 C66.67884208 715.59596529 64.19595081 717.5641478 63.28417969 722.70849609 C63.11389972 724.10420847 62.95207663 725.50096808 62.796875 726.8984375 C62.60710334 728.4734807 62.41723904 730.04851274 62.22729492 731.62353516 C62.12967865 732.45749817 62.03206238 733.29146118 61.93148804 734.1506958 C57.04938868 775.55544846 49.48054916 816.06931393 38.5625 856.3125 C38.3019281 857.27705109 38.0413562 858.24160217 37.77288818 859.23538208 C37.02755488 861.98092738 36.27194638 864.72338936 35.51171875 867.46484375 C35.29010574 868.27879608 35.06849274 869.09274841 34.84016418 869.93136597 C32.94939264 876.6527776 31.10575226 882.55158384 24.875 886.375 C21.4375 887.5625 21.4375 887.5625 17.875 887.375 C15.05353133 885.48783346 13.23107898 883.48454375 11.875 880.375 C10.79976178 872.24740091 13.24916568 864.27718888 15.09765625 856.43359375 C17.32698428 846.48442121 18.53381331 837.90578591 13.5 828.75 C13.1555484 828.12003113 12.8110968 827.49006226 12.45620728 826.84100342 C5.17561731 813.61120023 -2.63167008 800.79841091 -11.05908203 788.26806641 C-12.52535539 786.08728912 -13.98383421 783.90144418 -15.44140625 781.71484375 C-16.38497659 780.30439299 -17.32897066 778.89422559 -18.2734375 777.484375 C-18.70264496 776.84167664 -19.13185242 776.19897827 -19.57406616 775.5368042 C-23.51278117 769.06346106 -23.51278117 769.06346106 -29.125 764.375 C-29.38539063 765.22578125 -29.64578125 766.0765625 -29.9140625 766.953125 C-31.17411588 770.51379197 -32.76302063 773.7838459 -34.5 777.125 C-38.53097624 785.03180775 -42.23103082 793.07263421 -45.89648438 801.15429688 C-49.1879462 808.347965 -52.63692403 815.44416362 -56.19140625 822.51171875 C-57.07606142 824.28232262 -57.96041944 826.05307499 -58.84448242 827.82397461 C-60.16491896 830.46852004 -61.49165698 833.10873498 -62.84072876 835.73880005 C-64.10686272 838.20799527 -65.34829246 840.68830715 -66.5859375 843.171875 C-66.97378922 843.91148972 -67.36164093 844.65110443 -67.76124573 845.41313171 C-69.52144779 848.99980854 -70.26823732 850.64256608 -69.48144531 854.66577148 C-68.38789297 856.84992382 -67.3310401 858.90856865 -65.9609375 860.92578125 C-57.83350213 873.33511501 -57.83350213 873.33511501 -58.5546875 879.51171875 C-59.51215181 882.6398727 -61.04663299 884.88095959 -63.125 887.375 C-63.558125 887.99375 -63.99125 888.6125 -64.4375 889.25 C-67.49634164 891.28922776 -69.55158895 890.96080509 -73.125 890.375 C-79.04782336 886.29491793 -83.52289575 880.75434204 -87.8125 875.0625 C-88.70859985 873.89170898 -88.70859985 873.89170898 -89.62280273 872.69726562 C-95.3972598 865.11054316 -100.9775186 857.38475807 -106.51611328 849.625 C-109.2049071 845.86476877 -111.91608193 842.12074477 -114.625 838.375 C-115.70844029 836.87507725 -116.79177364 835.37507725 -117.875 833.875 C-118.41125 833.1325 -118.9475 832.39 -119.5 831.625 C-121.125 829.375 -122.75 827.125 -124.375 824.875 C-124.91133057 824.13241943 -125.44766113 823.38983887 -126.00024414 822.62475586 C-127.08288254 821.1256555 -128.1654022 819.62646938 -129.24780273 818.12719727 C-131.96579823 814.36271832 -134.68588068 810.59978096 -137.41015625 806.83984375 C-144.1823477 797.48839379 -150.89393964 788.09735222 -157.52880859 778.64794922 C-158.64547466 777.05783587 -159.76306407 775.46837073 -160.88134766 773.87939453 C-162.7142291 771.27492833 -164.54490136 768.6689222 -166.375 766.0625 C-166.92921631 765.27504395 -167.48343262 764.48758789 -168.05444336 763.67626953 C-172.10878284 757.89224665 -176.03972637 752.03225513 -179.94592285 746.14743042 C-181.70959652 743.49621386 -183.48230531 740.85107084 -185.25444031 738.20550537 C-208.28069049 703.82935012 -208.28069049 703.82935012 -217.125 689.375 C-217.98714111 687.97677002 -217.98714111 687.97677002 -218.86669922 686.55029297 C-234.62100674 660.94800834 -248.05923358 634.77621249 -258.54345703 606.59082031 C-259.20450439 604.81723145 -259.20450439 604.81723145 -259.87890625 603.0078125 C-260.26506104 601.9470752 -260.65121582 600.88633789 -261.04907227 599.79345703 C-261.8818933 597.23179282 -261.8818933 597.23179282 -264.125 596.375 C-270.58681862 605.32301479 -276.86202558 614.34917257 -282.75 623.6875 C-283.25821289 624.49292236 -283.76642578 625.29834473 -284.29003906 626.12817383 C-288.67476655 633.14120414 -290.47818205 637.40265967 -290.41796875 645.72265625 C-290.41347214 646.71596451 -290.40897552 647.70927277 -290.40434265 648.73268127 C-290.19809002 664.2443117 -288.84867644 679.72022643 -287.64234924 695.17912292 C-287.43573528 697.83518581 -287.23216026 700.49146604 -287.02941895 703.14782715 C-285.37189536 724.82875204 -283.60684455 746.49459282 -281.375 768.125 C-281.27458405 769.11627899 -281.17416809 770.10755798 -281.07070923 771.12887573 C-280.7915292 773.85273003 -280.50039014 776.57494184 -280.203125 779.296875 C-280.12311752 780.07211014 -280.04311005 780.84734528 -279.9606781 781.64607239 C-279.40757492 786.81595239 -279.40757492 786.81595239 -277.125 791.375 C-275.39339408 792.58556966 -275.39339408 792.58556966 -273.29296875 793.41796875 C-272.10997192 793.93846802 -272.10997192 793.93846802 -270.90307617 794.46948242 C-270.04818604 794.83017822 -269.1932959 795.19087402 -268.3125 795.5625 C-266.99052612 796.14124878 -266.99052612 796.14124878 -265.6418457 796.73168945 C-260.90926455 798.79418114 -256.14811944 800.78344875 -251.375 802.75 C-249.97858276 803.33164917 -249.97858276 803.33164917 -248.55395508 803.92504883 C-246.77255702 804.66416483 -244.98611584 805.39128147 -243.1940918 806.10424805 C-235.38488907 809.33598484 -229.2737686 813.4874538 -225.703125 821.33984375 C-224.76449418 824.64407791 -225.29933129 827.07232517 -226.125 830.375 C-227.44957967 830.91770972 -228.78543829 831.43290159 -230.125 831.9375 C-231.23875 832.37255859 -231.23875 832.37255859 -232.375 832.81640625 C-240.34371253 834.43505098 -248.21144064 830.91572226 -255.625 828.3125 C-256.77540771 827.9105542 -257.92581543 827.5086084 -259.11108398 827.09448242 C-273.92254781 821.80252072 -292.16689503 815.16027034 -301.125 801.375 C-304.38351031 794.24899623 -304.982044 787.33241408 -305.6171875 779.57421875 C-305.73924246 778.17424074 -305.86189028 776.77431431 -305.9850769 775.37443542 C-307.55172098 757.26639211 -308.79623933 739.13054607 -310.05407715 720.99902344 C-310.31683753 717.22837098 -310.58419018 713.45804954 -310.85147476 709.68771553 C-313.47437197 672.64633961 -313.47437197 672.64633961 -314.125 655.375 C-317.21707667 655.375 -319.21576534 656.99807937 -321.8828125 658.5234375 C-322.45781494 658.85127731 -323.03281738 659.17911713 -323.62524414 659.51689148 C-325.50294576 660.58981652 -327.3766212 661.66954727 -329.25 662.75 C-329.89080505 663.11769501 -330.53161011 663.48539001 -331.1918335 663.86422729 C-338.90012828 668.28730243 -346.54170697 672.78751206 -354.0300293 677.57568359 C-362.46061862 682.92558814 -371.1798709 687.79624777 -379.83984375 692.76171875 C-384.95891837 695.69751225 -390.05003064 698.67630695 -395.125 701.6875 C-402.99226301 706.34505071 -410.9653217 710.80742703 -418.98974609 715.18823242 C-420.49403927 716.02431396 -421.98559597 716.88351767 -423.46728516 717.7590332 C-430.84360984 722.0655884 -430.84360984 722.0655884 -435.5 721.9375 C-436.71816406 721.93943359 -436.71816406 721.93943359 -437.9609375 721.94140625 C-440.125 721.375 -440.125 721.375 -441.87890625 719.6015625 C-444.00861734 715.79612263 -443.8561737 712.60171838 -443.125 708.375 C-439.78585953 701.38494338 -435.010258 697.29394328 -428.5 693.375 C-427.64245117 692.83866943 -426.78490234 692.30233887 -425.90136719 691.74975586 C-422.98821781 689.93738647 -420.05755524 688.15577816 -417.125 686.375 C-415.46623412 685.35461962 -413.80748342 684.33421393 -412.14944458 683.31265259 C-399.60384471 675.58911531 -386.95009281 668.0624348 -374.19970703 660.68164062 C-365.29594678 655.5131379 -356.50485697 650.16627005 -347.73364258 644.77709961 C-341.82758286 641.15932609 -335.88701485 637.64787105 -329.81640625 634.3125 C-328.62800524 633.65307054 -327.43969014 632.99348625 -326.25146484 632.33374023 C-324.03226098 631.11007444 -321.80266532 629.90498243 -319.56103516 628.72290039 C-312.32016814 624.71520514 -308.29729441 620.48416911 -304.125 613.375 C-303.32069756 612.09350824 -302.51604575 610.81223565 -301.7109375 609.53125 C-300.97319066 608.31296454 -300.23622688 607.09420459 -299.5 605.875 C-291.62502982 593.07855722 -282.49774952 581.14594378 -273.45605469 569.16137695 C-261.60176348 555.47698928 -261.60176348 555.47698928 -257.68017578 539.33984375 C-258.50745927 533.82583129 -259.51777471 528.35143171 -260.5625 522.875 C-260.77970703 521.71613281 -260.99691406 520.55726563 -261.22070312 519.36328125 C-261.64818436 517.0910837 -262.08880834 514.82131222 -262.54370117 512.55444336 C-263.125 509.375 -263.125 509.375 -263.40356445 506.44750977 C-263.69856566 503.82567751 -264.01299929 501.76913724 -265.125 499.375 C-267.97669858 497.21739193 -271.03685157 496.32258441 -274.4375 495.3125 C-276.26994862 494.67372907 -278.09813387 494.02259787 -279.921875 493.359375 C-280.81455078 493.03517578 -281.70722656 492.71097656 -282.62695312 492.37695312 C-304.7334776 483.51014542 -318.75954012 460.22655388 -327.93359375 439.3359375 C-334.96296169 422.59138837 -339.38210041 404.71658757 -342.5625 386.875 C-342.72645264 385.96274658 -342.89040527 385.05049316 -343.05932617 384.1105957 C-344.04363938 378.15684877 -344.30714379 372.40436425 -344.125 366.375 C-345.33542969 366.01921875 -345.33542969 366.01921875 -346.5703125 365.65625 C-350.93291274 364.08379629 -354.91001027 362.04749556 -359 359.875 C-359.83208984 359.43357666 -360.66417969 358.99215332 -361.52148438 358.53735352 C-401.08159317 337.29224939 -401.08159317 337.29224939 -407.125 317.375 C-409.21774513 308.00680534 -407.69259029 300.22080691 -402.6875 292.01953125 C-389.89322315 274.64268889 -369.87635412 263.21452183 -351.125 253.375 C-350.17802246 252.86573975 -350.17802246 252.86573975 -349.21191406 252.34619141 C-334.26931023 244.3164366 -318.24771581 237.61750239 -302.125 232.375 C-300.61079629 221.93611131 -299.12198074 211.49585627 -297.765625 201.03515625 C-284.68711718 100.64113874 -284.68711718 100.64113874 -262.125 60.375 C-261.57457031 59.38757813 -261.02414062 58.40015625 -260.45703125 57.3828125 C-246.15282419 33.39523486 -220.81299844 16.49398527 -194.046875 9.5078125 C-159.18778086 1.16065969 -125.54465837 3.72360196 -90.64160156 10.08886719 C-69.4318521 13.93817378 -52.93791473 10.53364129 -32.60717773 4.48193359 C-21.6067414 1.23927165 -11.50227147 -0.03415645 0 0 Z " fill="#010101" transform="translate(578.125,74.625)"/>
<path d="M0 0 C3.10645071 0.00219481 6.21288524 0.00062026 9.31933594 -0.00123215 C36.178677 -0.00388526 62.87277036 0.62138327 89.66741943 2.45526123 C126.10445649 4.94777241 162.566281 4.97036598 199.07592773 5.13667679 C200.26169686 5.14248953 201.44746599 5.14830227 202.66916752 5.15429115 C208.30171438 5.18171674 213.93415045 5.20385079 219.5667572 5.21352005 C221.55931647 5.22065226 223.55187531 5.22790797 225.54443359 5.2353096 C226.91250404 5.23453116 226.91250404 5.23453116 228.30821228 5.23373699 C234.49971009 5.26382829 234.49971009 5.26382829 235.61303711 6.3771553 C235.90606884 9.42445515 236.13876286 12.45579657 236.33178711 15.5099678 C236.39458862 16.45282639 236.45739014 17.39568497 236.52209473 18.36711502 C236.65536556 20.38301234 236.78635265 22.39906168 236.9152832 24.41524124 C237.10734763 27.41334319 237.30676985 30.41087723 237.50756836 33.4084053 C238.98589011 55.78045692 239.82341602 78.07945225 239.80053711 100.5021553 C239.79960052 101.71277634 239.79866394 102.92339737 239.79769897 104.17070389 C239.73062431 144.83744269 237.59172177 185.35783773 235.17553711 225.9396553 C235.12356297 226.81728657 235.07158882 227.69491783 235.0180397 228.59914398 C233.881143 247.78316259 232.63887997 266.95216217 231.03881836 286.1037178 C230.9464751 287.21150935 230.9464751 287.21150935 230.85226631 288.34168053 C225.05225662 357.43226465 225.05225662 357.43226465 208.61303711 383.3771553 C208.28303711 383.3771553 207.95303711 383.3771553 207.61303711 383.3771553 C207.59321777 382.63666946 207.57339844 381.89618362 207.55297852 381.13325882 C207.45694105 377.73507119 207.34758395 374.3374332 207.23803711 370.9396553 C207.19163086 369.19265335 207.19163086 369.19265335 207.14428711 367.41035843 C206.92092444 360.80254607 206.29630339 354.77493569 204.61303711 348.3771553 C202.63303711 348.3771553 200.65303711 348.3771553 198.61303711 348.3771553 C195.96970765 353.13064266 194.65015359 357.53730709 193.61303711 362.8146553 C193.44497559 363.65504349 193.27691406 364.49543167 193.10375977 365.36128616 C191.31341367 374.96505628 190.47693077 384.67561321 189.65209961 394.40034866 C188.20145528 411.30834232 185.8922437 422.81510828 172.41381836 434.24824905 C155.53436519 447.07851681 136.03515951 454.51554499 114.76928711 454.54512405 C113.92313843 454.54845245 113.07698975 454.55178085 112.2052002 454.55521011 C110.41667216 454.56025775 108.62813476 454.56261911 106.83959961 454.56245804 C104.14932996 454.56462606 101.45948335 454.58275356 98.76928711 454.60176468 C85.07486397 454.64834489 72.24021532 453.45711907 58.98803711 449.7521553 C57.58509399 449.36084427 57.58509399 449.36084427 56.15380859 448.96162796 C46.32974546 446.13109203 36.92443763 442.58988254 27.61303711 438.3771553 C26.78416992 438.00509964 25.95530273 437.63304398 25.10131836 437.2497139 C11.05242691 430.7873314 -1.66975103 422.44999051 -14.44946289 413.8146553 C-15.62881912 413.01899658 -15.62881912 413.01899658 -16.83200073 412.20726395 C-29.55221088 403.5936817 -41.83789426 394.51373853 -53.44946289 384.4396553 C-54.02051758 383.94642776 -54.59157227 383.45320023 -55.17993164 382.9450264 C-61.37911667 377.55999645 -67.43312243 372.03164066 -73.38696289 366.3771553 C-73.95946777 365.83864944 -74.53197266 365.30014359 -75.12182617 364.74531937 C-101.74078272 339.57376398 -124.94270733 301.61481228 -126.52319336 264.14766312 C-126.76430343 253.37408621 -126.64029249 242.6348912 -125.88476562 231.88423538 C-125.36394736 223.97863047 -125.22586687 216.09726237 -125.21899414 208.1740303 C-125.21576728 206.79400475 -125.21240224 205.41397952 -125.20890808 204.03395462 C-125.20300031 201.18041055 -125.20106016 198.32689644 -125.20166016 195.47334671 C-125.20176305 191.82189512 -125.18794513 188.17063246 -125.17088795 184.51922607 C-125.1597841 181.68651313 -125.1577402 178.85384683 -125.15826988 176.02111435 C-125.15652553 174.02249079 -125.14570579 172.02388176 -125.13471985 170.02528763 C-125.13933479 168.21124435 -125.13933479 168.21124435 -125.14404297 166.36055374 C-125.14261795 165.29850723 -125.14119293 164.23646072 -125.13972473 163.14223099 C-125.39033516 160.33944032 -125.83297315 158.70596682 -127.38696289 156.3771553 C-129.68254757 155.11773813 -129.68254757 155.11773813 -132.38696289 155.3771553 C-137.24405228 158.87877789 -138.28311083 162.76188052 -139.38696289 168.3771553 C-139.81811446 171.1029017 -140.13409197 173.83215274 -140.42211914 176.57637405 C-140.54749306 177.71173347 -140.54749306 177.71173347 -140.67539978 178.87002945 C-140.85015818 180.4622101 -141.02228921 182.05468116 -141.19189453 183.64741898 C-141.44702036 186.04173258 -141.71019225 188.43505077 -141.97485352 190.82832718 C-142.14519054 192.39013092 -142.31511707 193.95197948 -142.48461914 195.51387405 C-142.56797516 196.27344406 -142.65133118 197.03301407 -142.73721313 197.81560135 C-143.3423841 203.49830054 -143.68150343 209.17017735 -143.84570312 214.88423538 C-144.38696289 217.3771553 -144.38696289 217.3771553 -146.29150391 219.19209671 C-150.24004791 221.42514257 -154.00210631 221.09993386 -158.38696289 220.3771553 C-175.49220958 214.43533277 -185.88087478 200.21736557 -193.52368164 184.55366898 C-203.36618308 163.81098623 -210.10521093 142.36509809 -211.38696289 119.3771553 C-211.48750977 118.46836624 -211.58805664 117.55957718 -211.69165039 116.62324905 C-212.52600704 104.89219457 -207.81930965 90.34379758 -200.94946289 80.8146553 C-196.71716024 76.19415488 -192.23771516 73.92537689 -186.13696289 72.7521553 C-169.0405865 75.60155137 -158.33727116 90.19826361 -148.77758789 103.3068428 C-148.14618896 104.17204544 -147.51479004 105.03724808 -146.86425781 105.92866898 C-145.59674405 107.67358114 -144.33636403 109.42369962 -143.08349609 111.17915726 C-142.21470825 112.38124832 -142.21470825 112.38124832 -141.32836914 113.60762405 C-140.55021851 114.69659988 -140.55021851 114.69659988 -139.75634766 115.80757523 C-139.30445068 116.32553665 -138.85255371 116.84349808 -138.38696289 117.3771553 C-137.72696289 117.3771553 -137.06696289 117.3771553 -136.38696289 117.3771553 C-132.38752695 108.71880196 -130.31965192 99.66971683 -128.38696289 90.3771553 C-128.19102539 89.44774124 -127.99508789 88.51832718 -127.79321289 87.56074905 C-126.40395518 76.67377761 -124.45922997 59.65689632 -131.38696289 50.3771553 C-133.44688847 49.56393411 -133.44688847 49.56393411 -135.38696289 49.3771553 C-137.90778056 52.36433948 -138.9545405 54.77238096 -139.77368164 58.5802803 C-139.98959961 59.5599678 -140.20551758 60.5396553 -140.42797852 61.5490303 C-140.64131836 62.56481155 -140.8546582 63.5805928 -141.07446289 64.6271553 C-141.2994043 65.6584053 -141.5243457 66.6896553 -141.75610352 67.7521553 C-142.30875837 70.29201591 -142.85201163 72.83351762 -143.38696289 75.3771553 C-147.59554655 73.43556206 -150.4214605 70.78044176 -153.69946289 67.5646553 C-154.54347656 66.78251663 -154.54347656 66.78251663 -155.40454102 65.98457718 C-157.00024414 64.42012405 -157.00024414 64.42012405 -159.38696289 61.3771553 C-159.08033307 57.24071896 -157.33985204 53.89618308 -155.50805664 50.2209053 C-155.21770035 49.63732254 -154.92734406 49.05373978 -154.62818909 48.45247269 C-154.01158625 47.21723118 -153.39196803 45.98349084 -152.76953125 44.75117874 C-151.84337647 42.91465999 -150.92992787 41.07224593 -150.01782227 39.2287178 C-146.97026961 33.11781834 -143.77486455 27.09878487 -140.29711914 21.2209053 C-139.69134033 20.1915889 -139.08556152 19.16227249 -138.46142578 18.10176468 C-131.26097821 8.64466278 -118.0377135 7.26505626 -107.01196289 5.7521553 C-96.60260981 4.41027263 -86.16933865 3.43462711 -75.70600891 2.63315201 C-73.54461594 2.46644462 -71.38352928 2.29570087 -69.2228241 2.12030411 C-46.15043846 0.27172105 -23.13771956 -0.01935702 0 0 Z " fill="#FDFDFD" transform="translate(467.386962890625,329.6228446960449)"/>
<path d="M0 0 C3.01307829 2.52345306 5.82171692 5.18334569 8.5 8.0625 C9.08265625 8.64 9.6653125 9.2175 10.265625 9.8125 C16.88843066 16.69604604 21.16023615 24.63935335 25.5 33.0625 C25.86206543 33.76068848 26.22413086 34.45887695 26.59716797 35.17822266 C50.5 81.8773736 50.5 81.8773736 50.5 99.0625 C43.34755449 98.24137333 36.21839578 97.38360199 29.125 96.14453125 C-33.64013251 85.32585985 -99.15040883 88.02330482 -161.5 100.0625 C-162.60553223 100.26987793 -163.71106445 100.47725586 -164.85009766 100.69091797 C-208.06756609 108.84810477 -252.7316941 121.24767498 -292.86328125 139.44140625 C-296.5 141.0625 -296.5 141.0625 -298.5 141.0625 C-298.78523361 133.09324587 -297.71875753 125.54477403 -296.4375 117.6875 C-296.32773834 117.01253479 -296.21797668 116.33756958 -296.10488892 115.64215088 C-290.28164232 80.23494065 -280.43504752 39.6076696 -250.78515625 16.30859375 C-237.08786465 6.9436203 -220.92897932 1.19034973 -204.5 -0.9375 C-203.6646875 -1.04835938 -202.829375 -1.15921875 -201.96875 -1.2734375 C-182.97419231 -3.29297381 -164.3088727 -1.69137613 -145.5 1.0625 C-140.08714547 1.85201517 -134.67322439 2.63349089 -129.25790405 3.40591431 C-126.94110799 3.74045416 -124.62648649 4.08769948 -122.31176758 4.4362793 C-100.73288024 7.60485588 -82.76225415 3.86922782 -62.01733398 -2.06835938 C-42.74824709 -7.5371221 -17.59315827 -12.53877026 0 0 Z " fill="#FDFDFD" transform="translate(609.5,104.9375)"/>
<path d="M0 0 C3.07475394 2.87878061 5.30986068 5.82332245 7.5625 9.375 C21.97203456 31.25418299 40.49529743 49.80520306 61 66 C61.58281738 66.46599609 62.16563477 66.93199219 62.76611328 67.41210938 C102.96376662 99.45416767 148.34301958 121.35380445 197 137 C196.62034234 144.91503682 194.19359358 150.92171097 190.875 158.0625 C190.34583984 159.22789307 189.81667969 160.39328613 189.27148438 161.59399414 C184.79784908 171.42649748 180.16364988 181.18614386 175.54766846 190.95239258 C169.41410577 203.93796593 163.69629403 217.0745881 158.13085938 230.31298828 C156.76909746 233.54864279 155.38788513 236.77548022 154 240 C150.9866802 238.68553453 149.27519919 237.44383643 147.3359375 234.796875 C146.85906494 234.15379395 146.38219238 233.51071289 145.89086914 232.84814453 C145.14051392 231.80956299 145.14051392 231.80956299 144.375 230.75 C143.84575928 230.03054199 143.31651855 229.31108398 142.77124023 228.56982422 C141.1705968 226.38710678 139.5828339 224.19565787 138 222 C137.56349121 221.39510742 137.12698242 220.79021484 136.67724609 220.16699219 C134.64466851 217.34320448 132.6253316 214.51031734 130.61328125 211.671875 C128.22581312 208.30759029 125.80674329 204.96689027 123.3840332 201.62792969 C96.48780917 164.54465532 70.89410349 126.4508007 46 88 C45.39575195 87.06671875 44.79150391 86.1334375 44.16894531 85.171875 C0 16.78125 0 16.78125 0 0 Z " fill="#FDFDFD" transform="translate(340,669)"/>
<path d="M0 0 C1.17987488 -0.00133942 2.35974976 -0.00267883 3.57537842 -0.00405884 C24.96222317 0.0011734 46.1130218 0.96071471 67.375 3.25 C68.38916992 3.35683105 69.40333984 3.46366211 70.44824219 3.57373047 C76.14878801 4.20886263 81.75268215 5.11912157 87.375 6.25 C88.45426758 6.4660791 89.53353516 6.6821582 90.64550781 6.90478516 C120.25183235 12.96771861 149.12980704 21.50763769 177.375 32.25 C178.13748047 32.53810547 178.89996094 32.82621094 179.68554688 33.12304688 C183.25825173 34.47479182 186.82299822 35.84473488 190.375 37.25 C190.375 37.58 190.375 37.91 190.375 38.25 C8.14056599 40.19003291 8.14056599 40.19003291 -48.3125 37.78515625 C-78.53127617 36.50662431 -108.73448304 36.04834229 -138.97870636 36.06152344 C-141.85785601 36.06251563 -144.73700041 36.06150815 -147.6161499 36.06030273 C-175.07309208 36.05602605 -202.44018525 36.48282294 -229.86354065 37.94291687 C-236.78880998 38.29733184 -243.69033127 38.35391179 -250.625 38.25 C-247.01055339 34.63555339 -241.57770254 33.9907273 -236.75 32.625 C-234.90172607 32.10039185 -234.90172607 32.10039185 -233.01611328 31.56518555 C-217.04965151 27.10397935 -200.84730756 23.63710221 -184.625 20.25 C-183.46291016 20.00652832 -182.30082031 19.76305664 -181.10351562 19.51220703 C-135.49367073 10.07831662 -89.05052963 4.61729278 -42.625 1.25 C-41.34995605 1.15428711 -40.07491211 1.05857422 -38.76123047 0.95996094 C-25.85304442 0.05499994 -12.93513228 0.00870954 0 0 Z " fill="#FCFCFC" transform="translate(578.625,272.75)"/>
<path d="M0 0 C3.55484581 0.68071515 4.714546 1.76322459 6.9375 4.5625 C9.32063844 9.32877687 7.77871287 15.51522276 6.9375 20.5625 C6.31963029 28.22766629 8.47639399 34.80452712 10.75 42.0625 C11.06022095 43.07315018 11.06022095 43.07315018 11.37670898 44.10421753 C16.99613211 62.411228 23.2863121 80.5090443 29.51098633 98.6171875 C29.91932205 99.8080748 30.32765778 100.9989621 30.74836731 102.22593689 C31.51909754 104.47206301 32.29267409 106.71721526 33.06962585 108.9611969 C36.36111654 118.55508443 38.16516427 126.86121685 38.30078125 137.07421875 C39.23058468 142.16817251 41.99979655 144.076554 45.96484375 147.1171875 C46.59519531 147.55289063 47.22554687 147.98859375 47.875 148.4375 C54.59527298 153.40848844 58.76985725 159.60152647 63.13671875 166.66015625 C64.34137776 168.60172163 65.5735792 170.52645508 66.83203125 172.43359375 C73.02642772 181.83603556 76.9594569 189.92430713 74.9375 201.5625 C73.22265625 203.51171875 73.22265625 203.51171875 70.9375 204.5625 C68.05136931 204.43412916 66.49858105 204.00904845 64.234375 202.20703125 C60.6162344 197.92191019 57.52992392 193.44139504 54.5625 188.6875 C48.25997923 178.63162697 40.63486817 168.46162272 28.9375 164.5625 C21.2465206 163.66521907 15.5757711 166.10349321 8.63671875 169.02734375 C-2.73083869 173.80711579 -14.38287019 176.030483 -26.19238281 171.45874023 C-28.10413447 170.65983765 -29.99556992 169.82766857 -31.8828125 168.97265625 C-36.2039696 167.05627085 -39.63431755 166.4415327 -44.3515625 166.3515625 C-45.37636719 166.32320312 -46.40117188 166.29484375 -47.45703125 166.265625 C-49.58707677 166.21411241 -51.71730691 166.16967887 -53.84765625 166.1328125 C-64.56761683 165.81161518 -72.49116965 163.25923287 -81.6171875 157.671875 C-83.93630614 156.39220504 -83.93630614 156.39220504 -86.171875 156.6796875 C-96.06436154 161.29890642 -103.8458553 177.02442839 -110.0625 185.5625 C-126.10387471 207.58318735 -126.10387471 207.58318735 -132.0625 210.5625 C-134.06210012 210.602492 -136.06297242 210.60596799 -138.0625 210.5625 C-138.83051027 188.0341987 -120.91422211 165.769598 -108.0625 148.5625 C-107.04034389 147.18100489 -106.01820862 145.79949437 -104.99609375 144.41796875 C-101.16040628 139.25773612 -97.29186004 134.12435949 -93.33203125 129.05859375 C-88.74907451 123.1897776 -84.46086914 117.29846853 -80.6328125 110.90234375 C-78.97669641 108.43464839 -77.32212805 106.49361631 -75.0625 104.5625 C-70.82199892 104.38205315 -69.3620142 105.29554169 -66.1875 108.125 C-63.99078017 111.10120106 -63.45888827 113.67512011 -63.6875 117.42578125 C-64.23176096 120.52693484 -65.31182672 123.37135795 -66.3828125 126.32421875 C-67.70833139 130.68928959 -67.85556962 134.74310499 -66 139 C-61.92931095 142.28281375 -55.73030563 141.67008132 -50.65551758 141.85302734 C-39.7102641 142.2584505 -30.09379277 144.05865427 -20.0625 148.5625 C-12.40245825 150.83980971 -4.69477839 150.11601341 2.5390625 146.8984375 C7.40063975 144.19052314 11.55776152 140.86206414 14.4375 136.0625 C15.69879177 129.75604115 14.60676421 124.1900579 12.9375 118.125 C12.71457275 117.29991943 12.49164551 116.47483887 12.26196289 115.62475586 C9.61164218 106.05351033 6.40422449 96.67036587 3.20166016 87.27294922 C0.91188487 80.55220669 -1.36414529 73.82693964 -3.6257019 67.09664917 C-4.42072505 64.73728253 -5.22303835 62.38048071 -6.02563477 60.02368164 C-9.91184998 48.53150469 -12.42135018 38.18503648 -12.4375 26 C-12.46199219 25.02353516 -12.48648438 24.04707031 -12.51171875 23.04101562 C-12.5443947 14.89925884 -10.68822936 8.94830892 -5.6875 2.5 C-3.0625 0.5625 -3.0625 0.5625 0 0 Z " fill="#010101" transform="translate(595.0625,408.4375)"/>
<path d="M0 0 C4.37770584 3.61282787 8.43909091 7.35409089 9.3359375 13.18359375 C9.40488231 17.16170953 9.30181585 19.46343849 7.3125 23 C4.65939724 25.29457536 3.48323493 25.85296388 0 26 C-2.578125 24.26953125 -2.578125 24.26953125 -5.25 21.8125 C-9.95659165 17.74943697 -14.09730278 14.93548586 -20 13 C-20.6703125 12.77699219 -21.340625 12.55398438 -22.03125 12.32421875 C-31.60232893 9.69931464 -42.12178173 10.2835175 -51.70703125 12.48828125 C-63.23406513 15.06075389 -77.26329147 15.53516721 -88.69140625 12.4609375 C-99.89144445 10.22472006 -110.39171127 12.49798661 -121 16 C-121.82371094 16.26941406 -122.64742187 16.53882813 -123.49609375 16.81640625 C-127.63930217 18.77489635 -131.1252129 21.66254258 -134.74023438 24.45507812 C-138.44815897 27.2147466 -141.23042667 28.77089386 -146 29 C-146.66 28.67 -147.32 28.34 -148 28 C-148.65158704 19.52936848 -146.62736355 10.89654121 -141.375 4.0625 C-134.54479482 -2.72526767 -125.62795217 -4.95894712 -116.375 -6.3125 C-114.76431641 -6.55830811 -114.76431641 -6.55830811 -113.12109375 -6.80908203 C-99.69141902 -8.68759108 -85.46485056 -9.72181685 -72.20263672 -6.45410156 C-68.33670706 -5.65709102 -64.49708226 -5.66239149 -60.5625 -5.6875 C-59.70358154 -5.68878906 -58.84466309 -5.69007813 -57.9597168 -5.69140625 C-51.22989108 -5.79012928 -44.76825542 -6.59825816 -38.17602539 -7.93237305 C-24.62976073 -10.63393015 -11.66479412 -7.4490966 0 0 Z " fill="#020202" transform="translate(639,618)"/>
<path d="M0 0 C2.04078921 -0.00964456 4.08054247 -0.04070562 6.12109375 -0.07226562 C16.35515802 -0.15601157 27.28143885 0.17769619 35.94140625 6.24023438 C38.10678168 9.48829753 38.17966055 10.01871557 37.75390625 13.67773438 C37.67785156 14.43957031 37.60179687 15.20140625 37.5234375 15.98632812 C36.78074034 18.86241041 36.09686897 20.15911653 33.94140625 22.24023438 C31.1983576 22.60837582 28.84195971 22.72758815 26.1015625 22.67382812 C24.47818778 22.6791858 22.85481523 22.68523677 21.23144531 22.69189453 C20.37844849 22.68861145 19.52545166 22.68532837 18.64660645 22.6819458 C-4.4571199 22.64512754 -26.55056624 24.75637999 -48.10546875 33.68945312 C-54.64172363 36.3679554 -60.98551752 37.83964761 -68.05859375 37.24023438 C-70.05859375 36.24023438 -70.05859375 36.24023438 -71.05859375 34.24023438 C-71.58079658 29.6896097 -71.53419032 27.27413995 -69.62109375 23.11523438 C-53.90618602 5.48387449 -22.32727701 0.06355012 0 0 Z " fill="#020202" transform="translate(488.05859375,366.759765625)"/>
<path d="M0 0 C1.02802734 -0.01998047 2.05605469 -0.03996094 3.11523438 -0.06054688 C11.1522147 -0.05540485 16.97641458 1.39035352 22.74609375 7.1640625 C23.57238281 8.12054688 24.39867187 9.07703125 25.25 10.0625 C26.09433594 11.02414062 26.93867187 11.98578125 27.80859375 12.9765625 C30.30319181 16.04010398 30.96448655 17.57363707 31 21.4375 C31.01417969 22.13875 31.02835938 22.84 31.04296875 23.5625 C30.8125 25.4375 30.8125 25.4375 28.8125 27.4375 C22.13934452 28.37408322 18.87519395 26.67243883 13.5 22.75 C12.943125 22.316875 12.38625 21.88375 11.8125 21.4375 C11.52117187 22.24574219 11.22984375 23.05398438 10.9296875 23.88671875 C7.94143786 31.67684123 5.78470572 35.61543729 -1.5 39.75 C-6.68055151 41.07525736 -11.3755737 41.06470526 -16.4375 39.3125 C-20.61801368 36.46214976 -23.36717752 33.07814496 -25.625 28.5625 C-27.03394827 26.1486926 -27.03394827 26.1486926 -29.9375 25.875 C-33.25249366 26.4487489 -35.37161366 27.58735827 -38.203125 29.34765625 C-43.92836078 32.49202787 -50.68830287 34.23332006 -57.1875 33.4375 C-59.1875 32.1875 -59.1875 32.1875 -60.1875 30.4375 C-59.69861882 25.41052609 -55.93147725 23.00460542 -52.33203125 19.87890625 C-37.04746396 8.01200618 -19.54362893 -0.13632208 0 0 Z " fill="#020202" transform="translate(495.1875,413.5625)"/>
<path d="M0 0 C0.08531374 5.90843016 -0.15537988 11.57083354 -0.91796875 17.42578125 C-1.01541382 18.20381104 -1.11285889 18.98184082 -1.21325684 19.78344727 C-1.5308305 22.29411213 -1.8581373 24.80335618 -2.1875 27.3125 C-2.2984903 28.16895111 -2.40948059 29.02540222 -2.52383423 29.9078064 C-4.02112651 41.415751 -5.67943924 52.88182494 -7.6875 64.3125 C-7.88947998 65.47885986 -8.09145996 66.64521973 -8.29956055 67.84692383 C-8.49332275 68.90419678 -8.68708496 69.96146973 -8.88671875 71.05078125 C-9.05389404 71.96512939 -9.22106934 72.87947754 -9.39331055 73.8215332 C-10 76 -10 76 -12 78 C-12.50974365 76.98599121 -13.0194873 75.97198242 -13.54467773 74.92724609 C-19.32118605 63.62715962 -25.94984254 53.12300353 -33.0625 42.625 C-34.11073294 41.06167167 -35.1582611 39.49787054 -36.20507812 37.93359375 C-41.16491854 30.54673849 -46.15274117 23.2615749 -51.66967773 16.27490234 C-53.24696382 13.57768236 -53.5154459 12.07335823 -53 9 C-49.71523712 6.81015808 -48.71875334 6.7515205 -44.90625 6.7265625 C-43.37339355 6.69961304 -43.37339355 6.69961304 -41.80957031 6.67211914 C-40.17133301 6.64879517 -40.17133301 6.64879517 -38.5 6.625 C-25.64092062 6.28968306 -12.04961311 0 0 0 Z " fill="#FCFCFC" transform="translate(617,804)"/>
<path d="M0 0 C3.60615388 2.71920341 6.90756389 5.23376589 9.2890625 9.1328125 C8.9765625 12.8828125 8.9765625 12.8828125 8.2890625 16.1328125 C1.17031195 16.72604171 -3.53655128 15.29517794 -10.01171875 12.32421875 C-12.26976498 11.32754133 -14.30463433 10.63007705 -16.7109375 10.1328125 C-16.9171875 10.9578125 -17.1234375 11.7828125 -17.3359375 12.6328125 C-19.92140071 19.21399158 -24.18080673 25.11890599 -30.7109375 28.1328125 C-35.68664296 28.91331532 -39.47589508 28.73868237 -44.0234375 26.5078125 C-48.7363293 22.34293137 -51.42630796 19.55596019 -52.7109375 13.1328125 C-59.1459375 14.6178125 -59.1459375 14.6178125 -65.7109375 16.1328125 C-67.7109375 13.1328125 -67.7109375 13.1328125 -67.52734375 11.30859375 C-64.07528203 2.10860151 -58.48872223 -6.62968895 -49.4375 -10.953125 C-31.95812144 -17.11898993 -14.48768874 -9.97855218 0 0 Z " fill="#020202" transform="translate(674.7109375,426.8671875)"/>
<path d="M0 0 C0.99435059 0.49113281 0.99435059 0.49113281 2.00878906 0.9921875 C7.03704888 3.63131516 11.50682566 6.52047699 13.375 12.125 C13.578125 14.31640625 13.578125 14.31640625 13.625 16.6875 C13.65078125 17.47253906 13.6765625 18.25757813 13.703125 19.06640625 C13.59484375 19.74574219 13.4865625 20.42507813 13.375 21.125 C9.95235688 23.40676208 8.54222731 23.21023024 4.59375 22.609375 C2.38708693 22.1276387 0.36978281 21.46264446 -1.75 20.6875 C-17.51040092 15.20094405 -34.62372403 16.59614321 -50.859375 18.6640625 C-62.09097824 20.0388853 -62.09097824 20.0388853 -66.5625 17.375 C-69.42014036 14.25757415 -70.41542151 12.35627362 -71.125 8.1875 C-70.625 5.125 -70.625 5.125 -68.25 2.5 C-49.69140724 -10.81099067 -19.61880286 -9.69633779 0 0 Z " fill="#030303" transform="translate(673.625,369.875)"/>
<path d="M0 0 C9.89660198 5.35803292 17.65506564 16.38495322 21 27 C23.82550273 36.99588229 24.7144924 47.09781388 25.5703125 57.41015625 C25.8494177 60.67191364 26.28636877 63.80055332 27 67 C27.375 70.5625 27.375 70.5625 27 74 C24.8125 76.5 24.8125 76.5 22 78 C18.85255143 78 17.48069374 77.38858476 15.04296875 75.41796875 C12.43647756 72.33303941 11.17265909 69.07843969 9.875 65.3125 C9.60913086 64.56210449 9.34326172 63.81170898 9.06933594 63.03857422 C7.34118741 57.85737297 6.59296173 53.05352119 6.25 47.625 C5.32349855 35.07031896 -1.60225558 23.64713593 -9.6875 14.25 C-12.39061906 11.10275793 -12.95932279 10.42033114 -13.375 6.125 C-10.69814921 0.04124821 -6.28013964 -2.26085027 0 0 Z " fill="#020202" transform="translate(284,430)"/>
<path d="M0 0 C4.63194444 2.39583333 4.63194444 2.39583333 5.8125 5.9375 C5.96564045 8.25645794 6.06197878 10.57929863 6.12890625 12.90234375 C6.14986862 13.59976181 6.17083099 14.29717987 6.19242859 15.01573181 C6.25899062 17.30203743 6.31784345 19.58844089 6.375 21.875 C6.39518188 22.65272766 6.41536377 23.43045532 6.43615723 24.23175049 C6.57890005 29.80000803 6.69977205 35.36856312 6.8125 40.9375 C6.83567291 42.02427032 6.83567291 42.02427032 6.85931396 43.13299561 C6.95517138 47.69273146 7.01826979 52.25190744 7.0625 56.8125 C7.09452515 58.54681274 7.09452515 58.54681274 7.12719727 60.31616211 C7.13162842 61.38487549 7.13605957 62.45358887 7.140625 63.5546875 C7.1499707 64.47878418 7.15931641 65.40288086 7.16894531 66.35498047 C6.73269026 69.51573796 5.70860209 71.38894548 3.8125 73.9375 C1.125 74.75 1.125 74.75 -1.1875 74.9375 C-11.15630473 61.5311764 -10.36229405 43.92127142 -10.4375 27.9375 C-10.44676514 26.69709961 -10.45603027 25.45669922 -10.46557617 24.17871094 C-10.4091225 7.78279373 -10.4091225 7.78279373 -6.87255859 3.25341797 C-4.68654969 1.23435309 -3.04776745 -0.08707907 0 0 Z " fill="#050505" transform="translate(409.1875,592.0625)"/>
<path d="M0 0 C2.375 0.6875 2.375 0.6875 5 2 C6.90204583 5.70558917 7.33968484 9.06665764 7.59765625 13.19140625 C7.67693359 14.38443359 7.75621094 15.57746094 7.83789062 16.80664062 C7.94907227 18.66579102 7.94907227 18.66579102 8.0625 20.5625 C8.21938477 23.0013451 8.37693117 25.44014774 8.53515625 27.87890625 C8.61040527 29.0810376 8.6856543 30.28316895 8.76318359 31.52172852 C8.97869737 34.68711488 9.25078146 37.84095523 9.54296875 41 C10.12356912 47.81112903 10.22093875 54.60447342 10.25 61.4375 C10.270625 62.67693359 10.29125 63.91636719 10.3125 65.19335938 C10.31765625 66.38638672 10.3228125 67.57941406 10.328125 68.80859375 C10.34214355 70.41432251 10.34214355 70.41432251 10.35644531 72.05249023 C9.95396971 75.38063266 8.90655292 77.27702714 7 80 C5.1953125 79.85546875 5.1953125 79.85546875 3 79 C1.3671875 76.48828125 1.3671875 76.48828125 -0.125 73.3125 C-0.62257813 72.27738281 -1.12015625 71.24226562 -1.6328125 70.17578125 C-6.99195571 57.72725716 -7.32890794 44.69397102 -7.25 31.3125 C-7.25715364 29.97590777 -7.2649647 28.63931889 -7.2734375 27.30273438 C-7.23266916 6.74529655 -7.23266916 6.74529655 -2.375 1.8125 C-1.199375 0.9153125 -1.199375 0.9153125 0 0 Z " fill="#030303" transform="translate(371,548)"/>
<path d="M0 0 C0.72856201 0.0100708 1.45712402 0.0201416 2.20776367 0.03051758 C3.72750346 0.05717394 5.24714201 0.09035743 6.76660156 0.12988281 C8.29176886 0.16815796 9.81722793 0.19622705 11.34277344 0.21386719 C13.52174255 0.24137703 15.69709533 0.30301776 17.875 0.375 C19.16019531 0.40980469 20.44539062 0.44460938 21.76953125 0.48046875 C25.0625 1.1875 25.0625 1.1875 27.5078125 3.61328125 C29.0625 6.1875 29.0625 6.1875 29.125 8.1875 C26.1865021 13.71879017 22.23915099 15.78263756 16.53710938 17.58325195 C12.60678282 18.5429558 8.84008651 18.59158336 4.8125 18.5 C3.57850464 18.48308105 3.57850464 18.48308105 2.31958008 18.46582031 C-17.11704963 18.03360032 -17.11704963 18.03360032 -23.9375 12.1875 C-23.9375 10 -23.9375 10 -22.9375 7.1875 C-16.31109828 1.4984917 -8.5703665 -0.16529637 0 0 Z " fill="#040404" transform="translate(568.9375,653.8125)"/>
<path d="M0 0 C4.47030032 1.3659251 6.41274196 3.12971103 9 7 C9.82128906 10.26708984 9.82128906 10.26708984 10.265625 13.9609375 C10.34874939 14.6285611 10.43187378 15.29618469 10.51751709 15.98403931 C10.68984833 17.39678149 10.8541051 18.81052939 11.01074219 20.22509766 C11.24571193 22.33646862 11.50720015 24.44315139 11.7734375 26.55078125 C14.76761242 51.18375577 14.76761242 51.18375577 11.48144531 56.41943359 C10.99256836 56.94102051 10.50369141 57.46260742 10 58 C7.6875 57.8125 7.6875 57.8125 5 57 C-4.33377907 45.42611395 -5.75521485 27.19803927 -5 13 C-4.34742565 8.016705 -3.58250501 3.74534614 0 0 Z " fill="#040404" transform="translate(440,648)"/>
<path d="M0 0 C4.90968811 1.88752588 6.29049136 5.38902849 8.62109375 9.875 C10.3578421 13.8109736 11.36505738 17.69064603 12.28515625 21.8828125 C13.05367337 25.2340511 14.02891105 28.47128925 15.0625 31.75 C19.44042835 45.80633699 19.44042835 45.80633699 19 53 C18 54 18 54 15.375 54.4375 C10.49939165 53.8054767 8.09747894 51.74007947 5 48 C1.12342169 41.72173693 -0.41123124 35.93540027 -0.75390625 28.625 C-1.00415107 25.95572197 -1.62048796 23.87545593 -2.5625 21.375 C-4.4827067 16.04214872 -5.17407828 11.04955397 -3.09765625 5.65625 C-2.14445704 3.72949857 -1.08104105 1.85803931 0 0 Z " fill="#040404" transform="translate(480,688)"/>
<path d="M0 0 C4.52197399 0 6.56851003 0.63895737 10.0625 3.5625 C13.82871349 8.41049821 15.53804492 14.30835844 17.5390625 20.03515625 C19.03287511 24.24690575 20.99783814 28.10631015 23.21484375 31.984375 C24.18058988 34.46360388 23.96229106 35.5509947 23 38 C21.25 40.3125 21.25 40.3125 19 42 C15.10725143 42.10244075 12.3243555 40.33050308 9.4765625 37.73828125 C2.03358917 28.97605074 -1.76024666 12.40369984 -1 1 C-0.67 0.67 -0.34 0.34 0 0 Z " fill="#030403" transform="translate(522,716)"/>
<path d="M0 0 C2.93038823 0.31679873 4.54746782 0.53779373 6.64453125 2.6796875 C10.79715627 9.78821563 7.88305267 21.23480412 6.125 28.81640625 C4.43976539 33.58538613 1.71915964 36.66619907 -2 40 C-2.66 40.66 -3.32 41.32 -4 42 C-6 41.8125 -6 41.8125 -8 41 C-11.01929138 36.47106292 -10.52900534 32.3132699 -10 27 C-8.99776446 22.72127707 -7.60722787 18.63382581 -6.125 14.5 C-5.57779297 12.89511719 -5.57779297 12.89511719 -5.01953125 11.2578125 C-2.33187254 3.49780881 -2.33187254 3.49780881 0 0 Z " fill="#030303" transform="translate(624,717)"/>
</svg>
