<?xml version="1.0" encoding="UTF-8"?>
<svg version="1.1" xmlns="http://www.w3.org/2000/svg" width="1024" height="1024">
<path d="M0 0 C337.92 0 675.84 0 1024 0 C1024 337.92 1024 675.84 1024 1024 C686.08 1024 348.16 1024 0 1024 C0 686.08 0 348.16 0 0 Z " fill="#FEFEFE" transform="translate(0,0)"/>
<path d="M0 0 C1.03080185 0.00081573 1.03080185 0.00081573 2.08242798 0.00164795 C12.54264483 0.03974883 22.04600843 0.57445659 31.875 4.375 C32.92816406 4.77589844 33.98132813 5.17679687 35.06640625 5.58984375 C43.45587328 9.28635221 49.45339108 15.01901336 55.875 21.375 C56.52082031 21.96023437 57.16664063 22.54546875 57.83203125 23.1484375 C67.65120448 32.20875191 74.61513741 44.66603406 80.625 56.4375 C81.12891266 57.4170163 81.12891266 57.4170163 81.64300537 58.4163208 C90.20197071 75.16647367 96.63997776 92.65610699 102.875 110.375 C103.31906189 111.63105042 103.31906189 111.63105042 103.77209473 112.91247559 C110.94998831 133.22332025 117.7579673 153.62574715 123.85644531 174.28808594 C124.41477051 176.17962402 124.41477051 176.17962402 124.984375 178.109375 C125.46342285 179.75244629 125.46342285 179.75244629 125.95214844 181.42871094 C127.43972274 186.91160825 127.43972274 186.91160825 131.0625 190.96484375 C136.74650735 193.68843061 142.43301681 195.9688712 148.4375 197.875 C235.8693666 225.6414407 235.8693666 225.6414407 247.234375 244.6484375 C250.52874751 251.8012874 251.37362563 258.86156108 248.875 266.38671875 C236.73886869 293.31376009 199.1324372 309.2352899 174.73242188 322.78759766 C171.83380402 324.39788587 168.94028316 326.01709213 166.046875 327.63671875 C164.21912282 328.65431575 162.39101337 329.67127141 160.5625 330.6875 C159.71421631 331.16203613 158.86593262 331.63657227 157.99194336 332.12548828 C157.21471924 332.55458496 156.43749512 332.98368164 155.63671875 333.42578125 C154.95569092 333.80387939 154.27466309 334.18197754 153.57299805 334.5715332 C151.875 335.375 151.875 335.375 149.875 335.375 C149.89165459 336.37614838 149.89165459 336.37614838 149.90864563 337.39752197 C150.54327623 377.78248948 149.64143364 417.9756041 147.5625 458.3125 C147.50881382 459.36613235 147.45512764 460.41976471 147.39981461 461.50532532 C145.57773069 497.24853173 143.71617536 533.10491695 139.75 568.6875 C139.65095367 569.57961182 139.55190735 570.47172363 139.44985962 571.39086914 C135.7534991 603.76180056 127.38538932 634.67413821 109.875 662.375 C110.52992432 662.61943848 111.18484863 662.86387695 111.85961914 663.11572266 C115.71842051 664.72722759 119.40281107 666.61354601 123.12109375 668.5234375 C123.9198291 668.93185379 124.71856445 669.34027008 125.54150391 669.76106262 C128.13329647 671.08788156 130.72307353 672.41856988 133.3125 673.75 C134.19857941 674.20484772 135.08465881 674.65969543 135.99758911 675.12832642 C146.66171778 680.60518572 157.29252235 686.12536019 167.78320312 691.92944336 C175.04620718 695.94582851 182.37541228 699.82894875 189.71432495 703.70410156 C245.76098212 733.31174906 245.76098212 733.31174906 250.24609375 743.2578125 C251.37397068 747.05476464 250.8834922 749.53012347 249.875 753.375 C248.1875 756.375 248.1875 756.375 245.875 758.375 C240.86908764 758.94547434 237.83595495 757.69155289 233.4375 755.375 C232.7770166 755.03178711 232.1165332 754.68857422 231.43603516 754.33496094 C229.86168378 753.51633946 228.289974 752.69262762 226.72021484 751.86523438 C223.39351169 750.12281151 220.05110807 748.41185618 216.70703125 746.703125 C204.17920581 740.29307897 191.6991695 733.815431 179.37255859 727.02441406 C171.25141156 722.5560623 163.0666551 718.21217273 154.875 713.875 C144.4680869 708.36428008 134.08744995 702.81245365 123.7734375 697.12890625 C118.85963391 694.42710428 113.90689409 691.8505534 108.875 689.375 C111.69301442 696.6998318 114.89621682 703.7825184 118.25 710.875 C125.40914625 726.19843843 131.78277608 741.82869237 138.11865234 757.50628662 C139.23012699 760.2524147 140.34999532 762.99511253 141.46875 765.73828125 C142.1882432 767.51271967 142.90706357 769.28743115 143.625 771.0625 C143.93598633 771.82675293 144.24697266 772.59100586 144.56738281 773.37841797 C147.84627702 781.56441156 151.41112012 790.82827132 148.03515625 799.54296875 C146.78912647 801.64485738 145.42256996 803.48394501 143.875 805.375 C143.30523438 806.09300781 142.73546875 806.81101562 142.1484375 807.55078125 C137.76990296 812.76718351 132.87336887 816.9683592 127.53515625 821.17578125 C125.08738425 823.19941655 122.97034821 825.30149879 120.8125 827.625 C115.84875322 832.70040571 109.8018096 836.51486611 102.5625 836.9375 C98.34129245 836.29358698 96.58774893 835.68116275 93.875 832.375 C92.85151333 826.46152146 94.86057662 822.30507949 97.875 817.375 C99.67640959 815.1906532 101.67532402 813.30707929 103.76953125 811.40625 C104.90105304 810.33012317 106.03189304 809.25327907 107.16210938 808.17578125 C108.92926318 806.51434617 110.7026974 804.86104038 112.48901367 803.22021484 C114.22765121 801.61469584 115.93683328 799.98205313 117.64453125 798.34375 C118.1839888 797.86329224 118.72344635 797.38283447 119.2792511 796.88781738 C121.00860257 795.3002235 121.00860257 795.3002235 122.875 792.375 C122.86907213 786.7881583 121.29673629 782.13713259 119.171875 776.9921875 C118.76078995 775.96589485 118.76078995 775.96589485 118.34140015 774.91886902 C117.44573576 772.69180527 116.53587312 770.47088185 115.625 768.25 C114.99291487 766.68953855 114.3612474 765.12890786 113.72998047 763.56811523 C109.1196378 752.21626676 104.29901306 740.95984686 99.37915039 729.73925781 C94.9850254 719.70374027 90.85010985 709.58298603 86.875 699.375 C86.45452393 699.74214111 86.03404785 700.10928223 85.60083008 700.48754883 C80.76464906 704.67623563 75.77143078 708.61489723 70.68554688 712.49414062 C66.67884208 715.59596529 64.19595081 717.5641478 63.28417969 722.70849609 C63.11389972 724.10420847 62.95207663 725.50096808 62.796875 726.8984375 C62.60710334 728.4734807 62.41723904 730.04851274 62.22729492 731.62353516 C62.12967865 732.45749817 62.03206238 733.29146118 61.93148804 734.1506958 C57.04938868 775.55544846 49.48054916 816.06931393 38.5625 856.3125 C38.3019281 857.27705109 38.0413562 858.24160217 37.77288818 859.23538208 C37.02755488 861.98092738 36.27194638 864.72338936 35.51171875 867.46484375 C35.29010574 868.27879608 35.06849274 869.09274841 34.84016418 869.93136597 C32.94939264 876.6527776 31.10575226 882.55158384 24.875 886.375 C21.4375 887.5625 21.4375 887.5625 17.875 887.375 C15.05353133 885.48783346 13.23107898 883.48454375 11.875 880.375 C10.79976178 872.24740091 13.24916568 864.27718888 15.09765625 856.43359375 C17.32698428 846.48442121 18.53381331 837.90578591 13.5 828.75 C13.1555484 828.12003113 12.8110968 827.49006226 12.45620728 826.84100342 C5.17561731 813.61120023 -2.63167008 800.79841091 -11.05908203 788.26806641 C-12.52535539 786.08728912 -13.98383421 783.90144418 -15.44140625 781.71484375 C-16.38497659 780.30439299 -17.32897066 778.89422559 -18.2734375 777.484375 C-18.70264496 776.84167664 -19.13185242 776.19897827 -19.57406616 775.5368042 C-23.51278117 769.06346106 -23.51278117 769.06346106 -29.125 764.375 C-29.38539063 765.22578125 -29.64578125 766.0765625 -29.9140625 766.953125 C-31.17411588 770.51379197 -32.76302063 773.7838459 -34.5 777.125 C-38.53097624 785.03180775 -42.23103082 793.07263421 -45.89648438 801.15429688 C-49.1879462 808.347965 -52.63692403 815.44416362 -56.19140625 822.51171875 C-57.07606142 824.28232262 -57.96041944 826.05307499 -58.84448242 827.82397461 C-60.16491896 830.46852004 -61.49165698 833.10873498 -62.84072876 835.73880005 C-64.10686272 838.20799527 -65.34829246 840.68830715 -66.5859375 843.171875 C-66.97378922 843.91148972 -67.36164093 844.65110443 -67.76124573 845.41313171 C-69.52144779 848.99980854 -70.26823732 850.64256608 -69.48144531 854.66577148 C-68.38789297 856.84992382 -67.3310401 858.90856865 -65.9609375 860.92578125 C-57.83350213 873.33511501 -57.83350213 873.33511501 -58.5546875 879.51171875 C-59.51215181 882.6398727 -61.04663299 884.88095959 -63.125 887.375 C-63.558125 887.99375 -63.99125 888.6125 -64.4375 889.25 C-67.49634164 891.28922776 -69.55158895 890.96080509 -73.125 890.375 C-79.04782336 886.29491793 -83.52289575 880.75434204 -87.8125 875.0625 C-88.70859985 873.89170898 -88.70859985 873.89170898 -89.62280273 872.69726562 C-95.3972598 865.11054316 -100.9775186 857.38475807 -106.51611328 849.625 C-109.2049071 845.86476877 -111.91608193 842.12074477 -114.625 838.375 C-115.70844029 836.87507725 -116.79177364 835.37507725 -117.875 833.875 C-118.41125 833.1325 -118.9475 832.39 -119.5 831.625 C-121.125 829.375 -122.75 827.125 -124.375 824.875 C-124.91133057 824.13241943 -125.44766113 823.38983887 -126.00024414 822.62475586 C-127.08288254 821.1256555 -128.1654022 819.62646938 -129.24780273 818.12719727 C-131.96579823 814.36271832 -134.68588068 810.59978096 -137.41015625 806.83984375 C-144.1823477 797.48839379 -150.89393964 788.09735222 -157.52880859 778.64794922 C-158.64547466 777.05783587 -159.76306407 775.46837073 -160.88134766 773.87939453 C-162.7142291 771.27492833 -164.54490136 768.6689222 -166.375 766.0625 C-166.92921631 765.27504395 -167.48343262 764.48758789 -168.05444336 763.67626953 C-172.10878284 757.89224665 -176.03972637 752.03225513 -179.94592285 746.14743042 C-181.70959652 743.49621386 -183.48230531 740.85107084 -185.25444031 738.20550537 C-208.28069049 703.82935012 -208.28069049 703.82935012 -217.125 689.375 C-217.98714111 687.97677002 -217.98714111 687.97677002 -218.86669922 686.55029297 C-234.62100674 660.94800834 -248.05923358 634.77621249 -258.54345703 606.59082031 C-259.20450439 604.81723145 -259.20450439 604.81723145 -259.87890625 603.0078125 C-260.26506104 601.9470752 -260.65121582 600.88633789 -261.04907227 599.79345703 C-261.8818933 597.23179282 -261.8818933 597.23179282 -264.125 596.375 C-270.58681862 605.32301479 -276.86202558 614.34917257 -282.75 623.6875 C-283.25821289 624.49292236 -283.76642578 625.29834473 -284.29003906 626.12817383 C-288.67476655 633.14120414 -290.47818205 637.40265967 -290.41796875 645.72265625 C-290.41347214 646.71596451 -290.40897552 647.70927277 -290.40434265 648.73268127 C-290.19809002 664.2443117 -288.84867644 679.72022643 -287.64234924 695.17912292 C-287.43573528 697.83518581 -287.23216026 700.49146604 -287.02941895 703.14782715 C-285.37189536 724.82875204 -283.60684455 746.49459282 -281.375 768.125 C-281.27458405 769.11627899 -281.17416809 770.10755798 -281.07070923 771.12887573 C-280.7915292 773.85273003 -280.50039014 776.57494184 -280.203125 779.296875 C-280.12311752 780.07211014 -280.04311005 780.84734528 -279.9606781 781.64607239 C-279.40757492 786.81595239 -279.40757492 786.81595239 -277.125 791.375 C-275.39339408 792.58556966 -275.39339408 792.58556966 -273.29296875 793.41796875 C-272.10997192 793.93846802 -272.10997192 793.93846802 -270.90307617 794.46948242 C-270.04818604 794.83017822 -269.1932959 795.19087402 -268.3125 795.5625 C-266.99052612 796.14124878 -266.99052612 796.14124878 -265.6418457 796.73168945 C-260.90926455 798.79418114 -256.14811944 800.78344875 -251.375 802.75 C-249.97858276 803.33164917 -249.97858276 803.33164917 -248.55395508 803.92504883 C-246.77255702 804.66416483 -244.98611584 805.39128147 -243.1940918 806.10424805 C-235.38488907 809.33598484 -229.2737686 813.4874538 -225.703125 821.33984375 C-224.76449418 824.64407791 -225.29933129 827.07232517 -226.125 830.375 C-227.44957967 830.91770972 -228.78543829 831.43290159 -230.125 831.9375 C-231.23875 832.37255859 -231.23875 832.37255859 -232.375 832.81640625 C-240.34371253 834.43505098 -248.21144064 830.91572226 -255.625 828.3125 C-256.77540771 827.9105542 -257.92581543 827.5086084 -259.11108398 827.09448242 C-273.92254781 821.80252072 -292.16689503 815.16027034 -301.125 801.375 C-304.38351031 794.24899623 -304.982044 787.33241408 -305.6171875 779.57421875 C-305.73924246 778.17424074 -305.86189028 776.77431431 -305.9850769 775.37443542 C-307.55172098 757.26639211 -308.79623933 739.13054607 -310.05407715 720.99902344 C-310.31683753 717.22837098 -310.58419018 713.45804954 -310.85147476 709.68771553 C-313.47437197 672.64633961 -313.47437197 672.64633961 -314.125 655.375 C-317.21707667 655.375 -319.21576534 656.99807937 -321.8828125 658.5234375 C-322.45781494 658.85127731 -323.03281738 659.17911713 -323.62524414 659.51689148 C-325.50294576 660.58981652 -327.3766212 661.66954727 -329.25 662.75 C-329.89080505 663.11769501 -330.53161011 663.48539001 -331.1918335 663.86422729 C-338.90012828 668.28730243 -346.54170697 672.78751206 -354.0300293 677.57568359 C-362.46061862 682.92558814 -371.1798709 687.79624777 -379.83984375 692.76171875 C-384.95891837 695.69751225 -390.05003064 698.67630695 -395.125 701.6875 C-402.99226301 706.34505071 -410.9653217 710.80742703 -418.98974609 715.18823242 C-420.49403927 716.02431396 -421.98559597 716.88351767 -423.46728516 717.7590332 C-430.84360984 722.0655884 -430.84360984 722.0655884 -435.5 721.9375 C-436.71816406 721.93943359 -436.71816406 721.93943359 -437.9609375 721.94140625 C-440.125 721.375 -440.125 721.375 -441.87890625 719.6015625 C-444.00861734 715.79612263 -443.8561737 712.60171838 -443.125 708.375 C-439.78585953 701.38494338 -435.010258 697.29394328 -428.5 693.375 C-427.64245117 692.83866943 -426.78490234 692.30233887 -425.90136719 691.74975586 C-422.98821781 689.93738647 -420.05755524 688.15577816 -417.125 686.375 C-415.46623412 685.35461962 -413.80748342 684.33421393 -412.14944458 683.31265259 C-399.60384471 675.58911531 -386.95009281 668.0624348 -374.19970703 660.68164062 C-365.29594678 655.5131379 -356.50485697 650.16627005 -347.73364258 644.77709961 C-341.82758286 641.15932609 -335.88701485 637.64787105 -329.81640625 634.3125 C-328.62800524 633.65307054 -327.43969014 632.99348625 -326.25146484 632.33374023 C-324.03226098 631.11007444 -321.80266532 629.90498243 -319.56103516 628.72290039 C-312.32016814 624.71520514 -308.29729441 620.48416911 -304.125 613.375 C-303.32069756 612.09350824 -302.51604575 610.81223565 -301.7109375 609.53125 C-300.97319066 608.31296454 -300.23622688 607.09420459 -299.5 605.875 C-291.62502982 593.07855722 -282.49774952 581.14594378 -273.45605469 569.16137695 C-261.60176348 555.47698928 -261.60176348 555.47698928 -257.68017578 539.33984375 C-258.50745927 533.82583129 -259.51777471 528.35143171 -260.5625 522.875 C-260.77970703 521.71613281 -260.99691406 520.55726563 -261.22070312 519.36328125 C-261.64818436 517.0910837 -262.08880834 514.82131222 -262.54370117 512.55444336 C-263.125 509.375 -263.125 509.375 -263.40356445 506.44750977 C-263.69856566 503.82567751 -264.01299929 501.76913724 -265.125 499.375 C-267.97669858 497.21739193 -271.03685157 496.32258441 -274.4375 495.3125 C-276.26994862 494.67372907 -278.09813387 494.02259787 -279.921875 493.359375 C-280.81455078 493.03517578 -281.70722656 492.71097656 -282.62695312 492.37695312 C-304.7334776 483.51014542 -318.75954012 460.22655388 -327.93359375 439.3359375 C-334.96296169 422.59138837 -339.38210041 404.71658757 -342.5625 386.875 C-342.72645264 385.96274658 -342.89040527 385.05049316 -343.05932617 384.1105957 C-344.04363938 378.15684877 -344.30714379 372.40436425 -344.125 366.375 C-345.33542969 366.01921875 -345.33542969 366.01921875 -346.5703125 365.65625 C-350.93291274 364.08379629 -354.91001027 362.04749556 -359 359.875 C-359.83208984 359.43357666 -360.66417969 358.99215332 -361.52148438 358.53735352 C-401.08159317 337.29224939 -401.08159317 337.29224939 -407.125 317.375 C-409.21774513 308.00680534 -407.69259029 300.22080691 -402.6875 292.01953125 C-389.89322315 274.64268889 -369.87635412 263.21452183 -351.125 253.375 C-350.17802246 252.86573975 -350.17802246 252.86573975 -349.21191406 252.34619141 C-334.26931023 244.3164366 -318.24771581 237.61750239 -302.125 232.375 C-300.61079629 221.93611131 -299.12198074 211.49585627 -297.765625 201.03515625 C-284.68711718 100.64113874 -284.68711718 100.64113874 -262.125 60.375 C-261.57457031 59.38757813 -261.02414062 58.40015625 -260.45703125 57.3828125 C-246.15282419 33.39523486 -220.81299844 16.49398527 -194.046875 9.5078125 C-159.18778086 1.16065969 -125.54465837 3.72360196 -90.64160156 10.08886719 C-69.4318521 13.93817378 -52.93791473 10.53364129 -32.60717773 4.48193359 C-21.6067414 1.23927165 -11.50227147 -0.03415645 0 0 Z " fill="#010101" transform="translate(578.125,74.625)"/>
<path d="M0 0 C3.10645071 0.00219481 6.21288524 0.00062026 9.31933594 -0.00123215 C36.178677 -0.00388526 62.87277036 0.62138327 89.66741943 2.45526123 C126.10445649 4.94777241 162.566281 4.97036598 199.07592773 5.13667679 C200.26169686 5.14248953 201.44746599 5.14830227 202.66916752 5.15429115 C208.30171438 5.18171674 213.93415045 5.20385079 219.5667572 5.21352005 C221.55931647 5.22065226 223.55187531 5.22790797 225.54443359 5.2353096 C226.91250404 5.23453116 226.91250404 5.23453116 228.30821228 5.23373699 C234.49971009 5.26382829 234.49971009 5.26382829 235.61303711 6.3771553 C235.90606884 9.42445515 236.13876286 12.45579657 236.33178711 15.5099678 C236.39458862 16.45282639 236.45739014 17.39568497 236.52209473 18.36711502 C236.65536556 20.38301234 236.78635265 22.39906168 236.9152832 24.41524124 C237.10734763 27.41334319 237.30676985 30.41087723 237.50756836 33.4084053 C238.98589011 55.78045692 239.82341602 78.07945225 239.80053711 100.5021553 C239.79960052 101.71277634 239.79866394 102.92339737 239.79769897 104.17070389 C239.73062431 144.83744269 237.59172177 185.35783773 235.17553711 225.9396553 C235.12356297 226.81728657 235.07158882 227.69491783 235.0180397 228.59914398 C233.881143 247.78316259 232.63887997 266.95216217 231.03881836 286.1037178 C230.9464751 287.21150935 230.9464751 287.21150935 230.85226631 288.34168053 C225.05225662 357.43226465 225.05225662 357.43226465 208.61303711 383.3771553 C208.28303711 383.3771553 207.95303711 383.3771553 207.61303711 383.3771553 C207.59321777 382.63666946 207.57339844 381.89618362 207.55297852 381.13325882 C207.45694105 377.73507119 207.34758395 374.3374332 207.23803711 370.9396553 C207.19163086 369.19265335 207.19163086 369.19265335 207.14428711 367.41035843 C206.92092444 360.80254607 206.29630339 354.77493569 204.61303711 348.3771553 C202.63303711 348.3771553 200.65303711 348.3771553 198.61303711 348.3771553 C195.96970765 353.13064266 194.65015359 357.53730709 193.61303711 362.8146553 C193.44497559 363.65504349 193.27691406 364.49543167 193.10375977 365.36128616 C191.31341367 374.96505628 190.47693077 384.67561321 189.65209961 394.40034866 C188.20145528 411.30834232 185.8922437 422.81510828 172.41381836 434.24824905 C155.53436519 447.07851681 136.03515951 454.51554499 114.76928711 454.54512405 C113.92313843 454.54845245 113.07698975 454.55178085 112.2052002 454.55521011 C110.41667216 454.56025775 108.62813476 454.56261911 106.83959961 454.56245804 C104.14932996 454.56462606 101.45948335 454.58275356 98.76928711 454.60176468 C85.07486397 454.64834489 72.24021532 453.45711907 58.98803711 449.7521553 C57.58509399 449.36084427 57.58509399 449.36084427 56.15380859 448.96162796 C46.32974546 446.13109203 36.92443763 442.58988254 27.61303711 438.3771553 C26.78416992 438.00509964 25.95530273 437.63304398 25.10131836 437.2497139 C11.05242691 430.7873314 -1.66975103 422.44999051 -14.44946289 413.8146553 C-15.62881912 413.01899658 -15.62881912 413.01899658 -16.83200073 412.20726395 C-29.55221088 403.5936817 -41.83789426 394.51373853 -53.44946289 384.4396553 C-54.02051758 383.94642776 -54.59157227 383.45320023 -55.17993164 382.9450264 C-61.37911667 377.55999645 -67.43312243 372.03164066 -73.38696289 366.3771553 C-73.95946777 365.83864944 -74.53197266 365.30014359 -75.12182617 364.74531937 C-101.74078272 339.57376398 -124.94270733 301.61481228 -126.52319336 264.14766312 C-126.76430343 253.37408621 -126.64029249 242.6348912 -125.88476562 231.88423538 C-125.36394736 223.97863047 -125.22586687 216.09726237 -125.21899414 208.1740303 C-125.21576728 206.79400475 -125.21240224 205.41397952 -125.20890808 204.03395462 C-125.20300031 201.18041055 -125.20106016 198.32689644 -125.20166016 195.47334671 C-125.20176305 191.82189512 -125.18794513 188.17063246 -125.17088795 184.51922607 C-125.1597841 181.68651313 -125.1577402 178.85384683 -125.15826988 176.02111435 C-125.15652553 174.02249079 -125.14570579 172.02388176 -125.13471985 170.02528763 C-125.13933479 168.21124435 -125.13933479 168.21124435 -125.14404297 166.36055374 C-125.14261795 165.29850723 -125.14119293 164.23646072 -125.13972473 163.14223099 C-125.39033516 160.33944032 -125.83297315 158.70596682 -127.38696289 156.3771553 C-129.68254757 155.11773813 -129.68254757 155.11773813 -132.38696289 155.3771553 C-137.24405228 158.87877789 -138.28311083 162.76188052 -139.38696289 168.3771553 C-139.81811446 171.1029017 -140.13409197 173.83215274 -140.42211914 176.57637405 C-140.54749306 177.71173347 -140.54749306 177.71173347 -140.67539978 178.87002945 C-140.85015818 180.4622101 -141.02228921 182.05468116 -141.19189453 183.64741898 C-141.44702036 186.04173258 -141.71019225 188.43505077 -141.97485352 190.82832718 C-142.14519054 192.39013092 -142.31511707 193.95197948 -142.48461914 195.51387405 C-142.56797516 196.27344406 -142.65133118 197.03301407 -142.73721313 197.81560135 C-143.3423841 203.49830054 -143.68150343 209.17017735 -143.84570312 214.88423538 C-144.38696289 217.3771553 -144.38696289 217.3771553 -146.29150391 219.19209671 C-150.24004791 221.42514257 -154.00210631 221.09993386 -158.38696289 220.3771553 C-175.49220958 214.43533277 -185.88087478 200.21736557 -193.52368164 184.55366898 C-203.36618308 163.81098623 -210.10521093 142.36509809 -211.38696289 119.3771553 C-211.48750977 118.46836624 -211.58805664 117.55957718 -211.69165039 116.62324905 C-212.52600704 104.89219457 -207.81930965 90.34379758 -200.94946289 80.8146553 C-196.71716024 76.19415488 -192.23771516 73.92537689 -186.13696289 72.7521553 C-169.0405865 75.60155137 -158.33727116 90.19826361 -148.77758789 103.3068428 C-148.14618896 104.17204544 -147.51479004 105.03724808 -146.86425781 105.92866898 C-145.59674405 107.67358114 -144.33636403 109.42369962 -143.08349609 111.17915726 C-142.21470825 112.38124832 -142.21470825 112.38124832 -141.32836914 113.60762405 C-140.55021851 114.69659988 -140.55021851 114.69659988 -139.75634766 115.80757523 C-139.30445068 116.32553665 -138.85255371 116.84349808 -138.38696289 117.3771553 C-137.72696289 117.3771553 -137.06696289 117.3771553 -136.38696289 117.3771553 C-132.38752695 108.71880196 -130.31965192 99.66971683 -128.38696289 90.3771553 C-128.19102539 89.44774124 -127.99508789 88.51832718 -127.79321289 87.56074905 C-126.40395518 76.67377761 -124.45922997 59.65689632 -131.38696289 50.3771553 C-133.44688847 49.56393411 -133.44688847 49.56393411 -135.38696289 49.3771553 C-137.90778056 52.36433948 -138.9545405 54.77238096 -139.77368164 58.5802803 C-139.98959961 59.5599678 -140.20551758 60.5396553 -140.42797852 61.5490303 C-140.64131836 62.56481155 -140.8546582 63.5805928 -141.07446289 64.6271553 C-141.2994043 65.6584053 -141.5243457 66.6896553 -141.75610352 67.7521553 C-142.30875837 70.29201591 -142.85201163 72.83351762 -143.38696289 75.3771553 C-147.59554655 73.43556206 -150.4214605 70.78044176 -153.69946289 67.5646553 C-154.54347656 66.78251663 -154.54347656 66.78251663 -155.40454102 65.98457718 C-157.00024414 64.42012405 -157.00024414 64.42012405 -159.38696289 61.3771553 C-159.08033307 57.24071896 -157.33985204 53.89618308 -155.50805664 50.2209053 C-155.21770035 49.63732254 -154.92734406 49.05373978 -154.62818909 48.45247269 C-154.01158625 47.21723118 -153.39196803 45.98349084 -152.76953125 44.75117874 C-151.84337647 42.91465999 -150.92992787 41.07224593 -150.01782227 39.2287178 C-146.97026961 33.11781834 -143.77486455 27.09878487 -140.29711914 21.2209053 C-139.69134033 20.1915889 -139.08556152 19.16227249 -138.46142578 18.10176468 C-131.26097821 8.64466278 -118.0377135 7.26505626 -107.01196289 5.7521553 C-96.60260981 4.41027263 -86.16933865 3.43462711 -75.70600891 2.63315201 C-73.54461594 2.46644462 -71.38352928 2.29570087 -69.2228241 2.12030411 C-46.15043846 0.27172105 -23.13771956 -0.01935702 0 0 Z " fill="#FCFCFC" transform="translate(467.386962890625,329.6228446960449)"/>
<path d="M0 0 C3.01307829 2.52345306 5.82171692 5.18334569 8.5 8.0625 C9.08265625 8.64 9.6653125 9.2175 10.265625 9.8125 C16.88843066 16.69604604 21.16023615 24.63935335 25.5 33.0625 C25.86206543 33.76068848 26.22413086 34.45887695 26.59716797 35.17822266 C50.5 81.8773736 50.5 81.8773736 50.5 99.0625 C43.34755449 98.24137333 36.21839578 97.38360199 29.125 96.14453125 C-33.64013251 85.32585985 -99.15040883 88.02330482 -161.5 100.0625 C-162.60553223 100.26987793 -163.71106445 100.47725586 -164.85009766 100.69091797 C-208.06756609 108.84810477 -252.7316941 121.24767498 -292.86328125 139.44140625 C-296.5 141.0625 -296.5 141.0625 -298.5 141.0625 C-298.78523361 133.09324587 -297.71875753 125.54477403 -296.4375 117.6875 C-296.32773834 117.01253479 -296.21797668 116.33756958 -296.10488892 115.64215088 C-290.28164232 80.23494065 -280.43504752 39.6076696 -250.78515625 16.30859375 C-237.08786465 6.9436203 -220.92897932 1.19034973 -204.5 -0.9375 C-203.6646875 -1.04835938 -202.829375 -1.15921875 -201.96875 -1.2734375 C-182.97419231 -3.29297381 -164.3088727 -1.69137613 -145.5 1.0625 C-140.08714547 1.85201517 -134.67322439 2.63349089 -129.25790405 3.40591431 C-126.94110799 3.74045416 -124.62648649 4.08769948 -122.31176758 4.4362793 C-100.73288024 7.60485588 -82.76225415 3.86922782 -62.01733398 -2.06835938 C-42.74824709 -7.5371221 -17.59315827 -12.53877026 0 0 Z " fill="#FDFDFD" transform="translate(609.5,104.9375)"/>
<path d="M0 0 C3.07475394 2.87878061 5.30986068 5.82332245 7.5625 9.375 C21.97203456 31.25418299 40.49529743 49.80520306 61 66 C61.58281738 66.46599609 62.16563477 66.93199219 62.76611328 67.41210938 C102.96376662 99.45416767 148.34301958 121.35380445 197 137 C196.62034234 144.91503682 194.19359358 150.92171097 190.875 158.0625 C190.34583984 159.22789307 189.81667969 160.39328613 189.27148438 161.59399414 C184.79784908 171.42649748 180.16364988 181.18614386 175.54766846 190.95239258 C169.41410577 203.93796593 163.69629403 217.0745881 158.13085938 230.31298828 C156.76909746 233.54864279 155.38788513 236.77548022 154 240 C150.9866802 238.68553453 149.27519919 237.44383643 147.3359375 234.796875 C146.85906494 234.15379395 146.38219238 233.51071289 145.89086914 232.84814453 C145.14051392 231.80956299 145.14051392 231.80956299 144.375 230.75 C143.84575928 230.03054199 143.31651855 229.31108398 142.77124023 228.56982422 C141.1705968 226.38710678 139.5828339 224.19565787 138 222 C137.56349121 221.39510742 137.12698242 220.79021484 136.67724609 220.16699219 C134.64466851 217.34320448 132.6253316 214.51031734 130.61328125 211.671875 C128.22581312 208.30759029 125.80674329 204.96689027 123.3840332 201.62792969 C96.48780917 164.54465532 70.89410349 126.4508007 46 88 C45.39575195 87.06671875 44.79150391 86.1334375 44.16894531 85.171875 C0 16.78125 0 16.78125 0 0 Z " fill="#FDFDFD" transform="translate(340,669)"/>
<path d="M0 0 C3.3166023 0.39705802 4.82311023 0.86998523 7.21875 3.265625 C8.67115072 6.48706357 9.42205978 9.83147085 10.21875 13.265625 C10.52860312 14.59245789 10.83850188 15.91928013 11.1484375 17.24609375 C11.65747025 19.43069265 12.16483704 21.61558637 12.66601562 23.80200195 C13.92733988 29.23756614 15.44855589 34.54430472 17.19140625 39.84765625 C18.08225402 42.81150339 18.80404785 45.75015607 19.5078125 48.76171875 C21.27288582 55.90979641 23.85869888 62.66475179 26.53125 69.515625 C27.02757167 70.80511322 27.52308904 72.09491128 28.01782227 73.38500977 C29.41113029 77.01460171 30.81393036 80.64047153 32.21875 84.265625 C33.37144166 87.24223039 34.51817264 90.22090556 35.65625 93.203125 C36.1203125 94.40710938 36.584375 95.61109375 37.0625 96.8515625 C38.21875 100.265625 38.21875 100.265625 38.9375 103.8046875 C41.02600599 114.04290707 46.19577873 118.92692617 53.5859375 125.80078125 C57.91766235 129.83751015 61.08098905 134.26728219 64.21875 139.265625 C65.65546257 141.3703294 67.09298997 143.47447776 68.53125 145.578125 C70.91204891 149.081501 72.67032481 152.33708772 74.21875 156.265625 C74.87875 156.925625 75.53875 157.585625 76.21875 158.265625 C77.30224184 160.88095013 78.31458804 163.48289261 79.28125 166.140625 C79.6844043 167.22150391 79.6844043 167.22150391 80.09570312 168.32421875 C83.28192632 176.95324217 84.89858214 184.75093475 81.12890625 193.53515625 C79.79889142 196.06389689 78.58514731 197.64295256 76.21875 199.265625 C73.28125 199.890625 73.28125 199.890625 70.21875 199.265625 C64.59067762 194.46117297 62.26549629 187.22456239 60.21875 180.265625 C60.08203125 177.36328125 60.08203125 177.36328125 60.21875 175.265625 C59.55875 175.265625 58.89875 175.265625 58.21875 175.265625 C58.03441406 174.69457031 57.85007812 174.12351562 57.66015625 173.53515625 C53.94224332 163.1415241 47.30254048 154.6112547 40.21875 146.265625 C36.9667408 147.34962807 36.63888269 147.77971287 34.71875 150.390625 C25.99096505 160.94212621 13.96024051 164.25910889 1 165.93359375 C-5.96555067 166.54523818 -11.77727423 166.33295985 -18.53125 164.515625 C-19.80484375 164.19078125 -21.0784375 163.8659375 -22.390625 163.53125 C-24.81352287 162.88009797 -27.11105881 162.13841862 -29.4543457 161.23461914 C-37.64944973 158.13622811 -44.77023704 157.87360168 -53.46875 158.203125 C-61.84595694 158.49169717 -69.02219412 158.7154341 -76.78125 155.265625 C-78.1115625 154.70875 -78.1115625 154.70875 -79.46875 154.140625 C-84.03534651 150.43797918 -87.66784965 145.0844673 -88.78125 139.265625 C-103.19777056 150.77197837 -122.88674053 169.5820966 -128.78125 187.265625 C-129.44125 187.265625 -130.10125 187.265625 -130.78125 187.265625 C-130.91660156 187.9875 -131.05195313 188.709375 -131.19140625 189.453125 C-131.74857332 192.10981567 -132.45292728 194.66262136 -133.21875 197.265625 C-134.42707373 201.52352766 -135.09752016 205.62044642 -135.59375 210.015625 C-136.33120331 215.12904096 -137.39686892 218.50086847 -141.13671875 222.140625 C-142.78125 223.265625 -142.78125 223.265625 -145.84375 224.078125 C-149.81225048 222.98045465 -151.73288062 220.6869956 -153.78125 217.265625 C-157.99825816 209.26070775 -156.87869622 197.11480598 -154.94140625 188.5546875 C-153.75225495 185.3115476 -152.38171032 182.32635933 -150.78125 179.265625 C-150.19988281 178.12867188 -149.61851562 176.99171875 -149.01953125 175.8203125 C-144.47447685 167.27833915 -138.83408516 159.78285576 -132.78125 152.265625 C-132.14703125 151.43804688 -131.5128125 150.61046875 -130.859375 149.7578125 C-126.23872327 143.7746609 -121.16369367 138.27481962 -115.96777344 132.79345703 C-113.04334153 129.70729392 -110.1770794 126.59355032 -107.3984375 123.375 C-103.41935705 118.7991406 -99.22836714 114.45480598 -94.96875 110.140625 C-94.22560547 109.36847656 -93.48246094 108.59632813 -92.71679688 107.80078125 C-86.84051788 101.85870413 -80.47046482 96.21936361 -72.09375 94.515625 C-67.44598115 95.56795002 -64.5045384 97.30375645 -61.78125 101.265625 C-60.23555157 106.16769717 -61.17120788 110.00046375 -63.3671875 114.5546875 C-64.61065067 116.76246905 -65.90296962 118.94368225 -67.25 121.08984375 C-69.03878446 124.79974621 -69.29308825 127.19552658 -68.78125 131.265625 C-65.21828878 133.64093248 -63.93918532 133.43719441 -59.7421875 133.25 C-58.52877686 133.21261719 -57.31536621 133.17523437 -56.06518555 133.13671875 C-54.77523682 133.09675781 -53.48528809 133.05679688 -52.15625 133.015625 C-40.14444188 132.79014864 -30.58315866 134.01317737 -19.78125 139.265625 C-19.78125 139.925625 -19.78125 140.585625 -19.78125 141.265625 C-9.35879168 143.20468701 0.9159307 142.57808144 11.21875 140.265625 C11.21875 139.605625 11.21875 138.945625 11.21875 138.265625 C12.1675 137.646875 13.11625 137.028125 14.09375 136.390625 C17.70629102 134.0166958 17.70629102 134.0166958 19.21875 130.265625 C19.52118798 124.1294945 18.6704772 118.97644803 17.03125 113.078125 C16.80711426 112.25022461 16.58297852 111.42232422 16.35205078 110.56933594 C14.04359078 102.26016867 11.03880497 94.33190425 7.53125 86.453125 C6.30575395 83.47692031 5.55701849 80.5739645 4.79681396 77.45571899 C3.8436441 73.84447229 2.57858076 70.35405398 1.3203125 66.83984375 C0.75211411 65.22087503 0.18442293 63.60172823 -0.3828125 61.98242188 C-1.26161838 59.48462252 -2.14371245 56.98819182 -3.03515625 54.49487305 C-6.26456472 45.44112504 -9.17968235 36.44395673 -11.1953125 27.03515625 C-11.36066498 26.27216721 -11.52601746 25.50917816 -11.69638062 24.72306824 C-13.25739777 16.92438406 -13.56886862 10.42001572 -9.78125 3.265625 C-6.87847689 -0.38625085 -4.43698093 -0.20168095 0 0 Z " fill="#030303" transform="translate(590.78125,408.734375)"/>
<path d="M0 0 C1.17987488 -0.00133942 2.35974976 -0.00267883 3.57537842 -0.00405884 C24.96222317 0.0011734 46.1130218 0.96071471 67.375 3.25 C68.38916992 3.35683105 69.40333984 3.46366211 70.44824219 3.57373047 C76.14878801 4.20886263 81.75268215 5.11912157 87.375 6.25 C88.45426758 6.4660791 89.53353516 6.6821582 90.64550781 6.90478516 C120.25183235 12.96771861 149.12980704 21.50763769 177.375 32.25 C178.13748047 32.53810547 178.89996094 32.82621094 179.68554688 33.12304688 C183.25825173 34.47479182 186.82299822 35.84473488 190.375 37.25 C190.375 37.58 190.375 37.91 190.375 38.25 C8.14056599 40.19003291 8.14056599 40.19003291 -48.3125 37.78515625 C-78.53127617 36.50662431 -108.73448304 36.04834229 -138.97870636 36.06152344 C-141.85785601 36.06251563 -144.73700041 36.06150815 -147.6161499 36.06030273 C-175.07309208 36.05602605 -202.44018525 36.48282294 -229.86354065 37.94291687 C-236.78880998 38.29733184 -243.69033127 38.35391179 -250.625 38.25 C-247.01055339 34.63555339 -241.57770254 33.9907273 -236.75 32.625 C-234.90172607 32.10039185 -234.90172607 32.10039185 -233.01611328 31.56518555 C-217.04965151 27.10397935 -200.84730756 23.63710221 -184.625 20.25 C-183.46291016 20.00652832 -182.30082031 19.76305664 -181.10351562 19.51220703 C-135.49367073 10.07831662 -89.05052963 4.61729278 -42.625 1.25 C-41.34995605 1.15428711 -40.07491211 1.05857422 -38.76123047 0.95996094 C-25.85304442 0.05499994 -12.93513228 0.00870954 0 0 Z " fill="#FCFCFC" transform="translate(578.625,272.75)"/>
<path d="M0 0 C2.875 1.6875 2.875 1.6875 6 4 C12.1468445 8.50204249 18.18517321 10.46910544 25.5625 12.1875 C26.54541016 12.43435547 27.52832031 12.68121094 28.54101562 12.93554688 C42.19809021 16.2418109 55.69532425 17.38264412 69.6875 17.3125 C70.79844025 17.31026428 70.79844025 17.31026428 71.93182373 17.3079834 C83.82944447 17.26509525 95.35382999 16.55093861 107 14 C107.72832031 13.8448291 108.45664062 13.6896582 109.20703125 13.52978516 C124.14249352 10.30588395 124.14249352 10.30588395 137.1875 2.75 C139.98573495 0.53285013 141.01719414 -0.00320569 144.6875 -0.6875 C149.01744885 0.21116863 150.40130333 1.43607314 153 5 C155.10858172 10.01443811 155.52116871 14.72661513 154 20 C128.05315001 43.8168847 84.98803967 43.15573412 52 42 C40.18332782 41.32662996 28.86918416 38.63988272 17.4375 35.6875 C16.37845459 35.41607178 15.31940918 35.14464355 14.22827148 34.86499023 C6.64613353 32.78283638 -0.09044254 29.73583371 -7 26 C-7 25.34 -7 24.68 -7 24 C-7.86625 23.9071875 -7.86625 23.9071875 -8.75 23.8125 C-12.02957119 22.6282104 -13.17680876 20.93012878 -15 18 C-16.27951358 12.49809161 -13.39161815 8.71226662 -10.60546875 4.171875 C-7.54673609 0.03402741 -4.93317511 -0.58037354 0 0 Z " fill="#030303" transform="translate(486,591)"/>
<path d="M0 0 C2.15646291 0.02381882 4.31169823 0.02050131 6.46826172 0.01391602 C25.50682017 0.05046359 25.50682017 0.05046359 31.39404297 4.71118164 C35.46286466 10.05151011 35.46286466 10.05151011 35.20654297 14.83618164 C34.42644502 18.19660359 33.80801591 19.9222087 31.39404297 22.33618164 C30.73404297 22.33618164 30.07404297 22.33618164 29.39404297 22.33618164 C29.39404297 23.32618164 29.39404297 24.31618164 29.39404297 25.33618164 C27.45924072 25.30476074 27.45924072 25.30476074 25.48535156 25.27270508 C20.63602078 25.19954252 15.78673731 25.15410823 10.93701172 25.11645508 C8.85001382 25.09651151 6.76307052 25.06934661 4.67626953 25.03442383 C-6.42890189 24.85341912 -16.48360813 24.76175451 -27.07226562 28.4699707 C-29.60595703 29.33618164 -29.60595703 29.33618164 -32.60595703 29.33618164 C-32.60595703 29.99618164 -32.60595703 30.65618164 -32.60595703 31.33618164 C-33.17701172 31.53211914 -33.74806641 31.72805664 -34.33642578 31.92993164 C-41.09291568 34.42199151 -46.8708878 37.78523551 -52.91845703 41.62915039 C-57.15156 44.31790911 -60.59621977 45.19127594 -65.60595703 44.33618164 C-68.63103849 42.60016059 -71.02385772 40.50038027 -72.60595703 37.33618164 C-73.01119905 32.06803536 -72.68399939 28.6816532 -69.60595703 24.33618164 C-50.87582169 8.07256618 -24.39745546 -0.28758731 0 0 Z " fill="#040404" transform="translate(486.60595703125,367.663818359375)"/>
<path d="M0 0 C0.08531374 5.90843016 -0.15537988 11.57083354 -0.91796875 17.42578125 C-1.01541382 18.20381104 -1.11285889 18.98184082 -1.21325684 19.78344727 C-1.5308305 22.29411213 -1.8581373 24.80335618 -2.1875 27.3125 C-2.2984903 28.16895111 -2.40948059 29.02540222 -2.52383423 29.9078064 C-4.02112651 41.415751 -5.67943924 52.88182494 -7.6875 64.3125 C-7.88947998 65.47885986 -8.09145996 66.64521973 -8.29956055 67.84692383 C-8.49332275 68.90419678 -8.68708496 69.96146973 -8.88671875 71.05078125 C-9.05389404 71.96512939 -9.22106934 72.87947754 -9.39331055 73.8215332 C-10 76 -10 76 -12 78 C-12.50974365 76.98599121 -13.0194873 75.97198242 -13.54467773 74.92724609 C-19.32118605 63.62715962 -25.94984254 53.12300353 -33.0625 42.625 C-34.11073294 41.06167167 -35.1582611 39.49787054 -36.20507812 37.93359375 C-41.16491854 30.54673849 -46.15274117 23.2615749 -51.66967773 16.27490234 C-53.24696382 13.57768236 -53.5154459 12.07335823 -53 9 C-49.71523712 6.81015808 -48.71875334 6.7515205 -44.90625 6.7265625 C-43.37339355 6.69961304 -43.37339355 6.69961304 -41.80957031 6.67211914 C-40.17133301 6.64879517 -40.17133301 6.64879517 -38.5 6.625 C-25.64092062 6.28968306 -12.04961311 0 0 0 Z " fill="#FCFCFC" transform="translate(617,804)"/>
<path d="M0 0 C2.7216611 2.2826835 2.96664287 3.80356357 3.5625 7.3125 C2.6343752 13.39687369 -0.66182125 16.23708745 -5.4609375 19.85546875 C-23.15804934 31.74650808 -44.89846709 33.53854872 -65.5625 29.875 C-78.29473386 27.08861447 -86.89550812 21.10449188 -96 12 C-96.69881711 4.89535942 -96.69881711 4.89535942 -94 1.4375 C-89.97809255 -0.48966399 -87.15181048 -0.20779941 -83 1 C-80.06228463 2.16698211 -77.18488996 3.40955691 -74.3203125 4.74609375 C-65.41226449 8.11019188 -56.56475739 8.33790301 -47.125 8.3125 C-45.93519531 8.32861328 -44.74539063 8.34472656 -43.51953125 8.36132812 C-31.17283981 8.36807495 -21.3073466 5.46699834 -10.32421875 0.109375 C-6.40483018 -1.19862307 -3.98591326 -0.96245223 0 0 Z " fill="#010101" transform="translate(606,649)"/>
<path d="M0 0 C1.65128906 0.51046875 1.65128906 0.51046875 3.3359375 1.03125 C13.02253631 4.37301369 22.02402248 9.46288926 28 18 C29.34478713 21.88004154 29.40941924 25.03032285 27.8125 28.8125 C23.81080351 33.64213369 23.81080351 33.64213369 20.0234375 34.390625 C14.16447518 34.8335706 11.20123164 33.20364443 6.796875 29.46875 C4.68720913 27.74432746 2.59311864 26.81034957 0 26 C0 25.34 0 24.68 0 24 C-0.66386719 23.86722656 -1.32773437 23.73445313 -2.01171875 23.59765625 C-10 22 -10 22 -12.3605957 21.47485352 C-14.93838546 21.01108503 -17.29065701 20.87077753 -19.90625 20.8671875 C-20.81503906 20.86589844 -21.72382812 20.86460937 -22.66015625 20.86328125 C-24.06587891 20.86908203 -24.06587891 20.86908203 -25.5 20.875 C-26.43714844 20.87113281 -27.37429688 20.86726563 -28.33984375 20.86328125 C-29.70302734 20.86521484 -29.70302734 20.86521484 -31.09375 20.8671875 C-32.32641602 20.86887939 -32.32641602 20.86887939 -33.58398438 20.87060547 C-36.13926078 21.00745839 -38.49882459 21.47347682 -41 22 C-43.35073851 22.1642555 -45.70651627 22.26462439 -48.0625 22.3125 C-49.27035156 22.34988281 -50.47820313 22.38726562 -51.72265625 22.42578125 C-55 22 -55 22 -57.37109375 20.16796875 C-60.30797363 16.25917178 -60.5563782 12.76895603 -60 8 C-57.21075948 2.97730859 -53.50866611 0.27993593 -48.125 -1.4921875 C-33.13941391 -5.07330182 -14.68669779 -4.70581531 0 0 Z " fill="#030303" transform="translate(666,371)"/>
<path d="M0 0 C3.3974053 2.8601764 5.37898893 5.2230701 6.12109375 9.68359375 C6.34697445 13.68965433 6.08623133 15.91873111 4.00390625 19.4140625 C0.44095771 22.68009866 -2.16319232 23.74370666 -6.99609375 23.6015625 C-7.7953125 23.58351563 -8.59453125 23.56546875 -9.41796875 23.546875 C-10.02125 23.52367187 -10.62453125 23.50046875 -11.24609375 23.4765625 C-11.24609375 22.8165625 -11.24609375 22.1565625 -11.24609375 21.4765625 C-20.38911264 19.44478052 -29.09646035 20.0061942 -37.96875 22.8203125 C-40.24609375 23.4765625 -40.24609375 23.4765625 -43.24609375 23.4765625 C-43.24609375 24.1365625 -43.24609375 24.7965625 -43.24609375 25.4765625 C-44.25671875 25.8890625 -45.26734375 26.3015625 -46.30859375 26.7265625 C-48.95346384 27.83655818 -51.27897891 29.1071575 -53.68359375 30.6640625 C-58.18939853 32.95648949 -60.25659837 33.12036836 -65.24609375 32.4765625 C-68.05612835 30.68292339 -69.75549843 29.45775315 -71.24609375 26.4765625 C-71.82518098 20.56987274 -70.62768453 17.13923375 -67.24609375 12.4765625 C-65.18359375 10.0390625 -65.18359375 10.0390625 -63.24609375 8.4765625 C-62.25609375 8.4765625 -61.26609375 8.4765625 -60.24609375 8.4765625 C-60.24609375 7.8165625 -60.24609375 7.1565625 -60.24609375 6.4765625 C-43.95393347 -1.25809945 -16.9299307 -10.84242431 0 0 Z " fill="#020202" transform="translate(515.24609375,419.5234375)"/>
<path d="M0 0 C6.6678017 3.41745827 12.01274914 7.46299827 15.4375 14.3125 C16.11410495 20.17640959 16.11410495 20.17640959 14.390625 23.0703125 C12.60155507 25.24876824 10.97834375 27.04207812 8.4375 28.3125 C2.67690553 28.84885523 -0.16166955 27.75765679 -4.875 24.5 C-12.64716531 19.39014808 -21.06026551 15.66521482 -30.5625 17.3125 C-32.53911348 18.19171247 -32.53911348 18.19171247 -34.4375 19.3125 C-39.30307788 22.02318267 -44.12165389 22.40917054 -49.5625 21.3125 C-52.52125188 19.62269559 -52.91930148 18.54223502 -54.5625 15.3125 C-55.43836145 10.84560662 -54.95733914 7.37233137 -53.375 3.125 C-39.06858526 -11.18141474 -16.62196828 -8.11766025 0 0 Z " fill="#020202" transform="translate(665.5625,422.6875)"/>
<path d="M0 0 C9.89660198 5.35803292 17.65506564 16.38495322 21 27 C23.82550273 36.99588229 24.7144924 47.09781388 25.5703125 57.41015625 C25.8494177 60.67191364 26.28636877 63.80055332 27 67 C27.375 70.5625 27.375 70.5625 27 74 C24.8125 76.5 24.8125 76.5 22 78 C18.85255143 78 17.48069374 77.38858476 15.04296875 75.41796875 C12.43647756 72.33303941 11.17265909 69.07843969 9.875 65.3125 C9.60913086 64.56210449 9.34326172 63.81170898 9.06933594 63.03857422 C7.34118741 57.85737297 6.59296173 53.05352119 6.25 47.625 C5.32349855 35.07031896 -1.60225558 23.64713593 -9.6875 14.25 C-12.39061906 11.10275793 -12.95932279 10.42033114 -13.375 6.125 C-10.69814921 0.04124821 -6.28013964 -2.26085027 0 0 Z " fill="#020202" transform="translate(284,430)"/>
<path d="M0 0 C4.63194444 2.39583333 4.63194444 2.39583333 5.8125 5.9375 C5.96564045 8.25645794 6.06197878 10.57929863 6.12890625 12.90234375 C6.14986862 13.59976181 6.17083099 14.29717987 6.19242859 15.01573181 C6.25899062 17.30203743 6.31784345 19.58844089 6.375 21.875 C6.39518188 22.65272766 6.41536377 23.43045532 6.43615723 24.23175049 C6.57890005 29.80000803 6.69977205 35.36856312 6.8125 40.9375 C6.83567291 42.02427032 6.83567291 42.02427032 6.85931396 43.13299561 C6.95517138 47.69273146 7.01826979 52.25190744 7.0625 56.8125 C7.09452515 58.54681274 7.09452515 58.54681274 7.12719727 60.31616211 C7.13162842 61.38487549 7.13605957 62.45358887 7.140625 63.5546875 C7.1499707 64.47878418 7.15931641 65.40288086 7.16894531 66.35498047 C6.73269026 69.51573796 5.70860209 71.38894548 3.8125 73.9375 C1.125 74.75 1.125 74.75 -1.1875 74.9375 C-11.15630473 61.5311764 -10.36229405 43.92127142 -10.4375 27.9375 C-10.44676514 26.69709961 -10.45603027 25.45669922 -10.46557617 24.17871094 C-10.4091225 7.78279373 -10.4091225 7.78279373 -6.87255859 3.25341797 C-4.68654969 1.23435309 -3.04776745 -0.08707907 0 0 Z " fill="#050505" transform="translate(409.1875,592.0625)"/>
<path d="M0 0 C2.375 0.6875 2.375 0.6875 5 2 C6.90204583 5.70558917 7.33968484 9.06665764 7.59765625 13.19140625 C7.67693359 14.38443359 7.75621094 15.57746094 7.83789062 16.80664062 C7.94907227 18.66579102 7.94907227 18.66579102 8.0625 20.5625 C8.21938477 23.0013451 8.37693117 25.44014774 8.53515625 27.87890625 C8.61040527 29.0810376 8.6856543 30.28316895 8.76318359 31.52172852 C8.97869737 34.68711488 9.25078146 37.84095523 9.54296875 41 C10.12356912 47.81112903 10.22093875 54.60447342 10.25 61.4375 C10.270625 62.67693359 10.29125 63.91636719 10.3125 65.19335938 C10.31765625 66.38638672 10.3228125 67.57941406 10.328125 68.80859375 C10.34214355 70.41432251 10.34214355 70.41432251 10.35644531 72.05249023 C9.95396971 75.38063266 8.90655292 77.27702714 7 80 C5.1953125 79.85546875 5.1953125 79.85546875 3 79 C1.3671875 76.48828125 1.3671875 76.48828125 -0.125 73.3125 C-0.62257813 72.27738281 -1.12015625 71.24226562 -1.6328125 70.17578125 C-6.99195571 57.72725716 -7.32890794 44.69397102 -7.25 31.3125 C-7.25715364 29.97590777 -7.2649647 28.63931889 -7.2734375 27.30273438 C-7.23266916 6.74529655 -7.23266916 6.74529655 -2.375 1.8125 C-1.199375 0.9153125 -1.199375 0.9153125 0 0 Z " fill="#030303" transform="translate(371,548)"/>
<path d="M0 0 C4.47030032 1.3659251 6.41274196 3.12971103 9 7 C9.82128906 10.26708984 9.82128906 10.26708984 10.265625 13.9609375 C10.34874939 14.6285611 10.43187378 15.29618469 10.51751709 15.98403931 C10.68984833 17.39678149 10.8541051 18.81052939 11.01074219 20.22509766 C11.24571193 22.33646862 11.50720015 24.44315139 11.7734375 26.55078125 C14.76761242 51.18375577 14.76761242 51.18375577 11.48144531 56.41943359 C10.99256836 56.94102051 10.50369141 57.46260742 10 58 C7.6875 57.8125 7.6875 57.8125 5 57 C-4.33377907 45.42611395 -5.75521485 27.19803927 -5 13 C-4.34742565 8.016705 -3.58250501 3.74534614 0 0 Z " fill="#040404" transform="translate(440,648)"/>
<path d="M0 0 C4.90968811 1.88752588 6.29049136 5.38902849 8.62109375 9.875 C10.3578421 13.8109736 11.36505738 17.69064603 12.28515625 21.8828125 C13.05367337 25.2340511 14.02891105 28.47128925 15.0625 31.75 C19.44042835 45.80633699 19.44042835 45.80633699 19 53 C18 54 18 54 15.375 54.4375 C10.49939165 53.8054767 8.09747894 51.74007947 5 48 C1.12342169 41.72173693 -0.41123124 35.93540027 -0.75390625 28.625 C-1.00415107 25.95572197 -1.62048796 23.87545593 -2.5625 21.375 C-4.4827067 16.04214872 -5.17407828 11.04955397 -3.09765625 5.65625 C-2.14445704 3.72949857 -1.08104105 1.85803931 0 0 Z " fill="#040404" transform="translate(480,688)"/>
<path d="M0 0 C4.52197399 0 6.56851003 0.63895737 10.0625 3.5625 C13.82871349 8.41049821 15.53804492 14.30835844 17.5390625 20.03515625 C19.03287511 24.24690575 20.99783814 28.10631015 23.21484375 31.984375 C24.18058988 34.46360388 23.96229106 35.5509947 23 38 C21.25 40.3125 21.25 40.3125 19 42 C15.10725143 42.10244075 12.3243555 40.33050308 9.4765625 37.73828125 C2.03358917 28.97605074 -1.76024666 12.40369984 -1 1 C-0.67 0.67 -0.34 0.34 0 0 Z " fill="#030403" transform="translate(522,716)"/>
<path d="M0 0 C2.93038823 0.31679873 4.54746782 0.53779373 6.64453125 2.6796875 C10.79715627 9.78821563 7.88305267 21.23480412 6.125 28.81640625 C4.43976539 33.58538613 1.71915964 36.66619907 -2 40 C-2.66 40.66 -3.32 41.32 -4 42 C-6 41.8125 -6 41.8125 -8 41 C-11.01929138 36.47106292 -10.52900534 32.3132699 -10 27 C-8.99776446 22.72127707 -7.60722787 18.63382581 -6.125 14.5 C-5.57779297 12.89511719 -5.57779297 12.89511719 -5.01953125 11.2578125 C-2.33187254 3.49780881 -2.33187254 3.49780881 0 0 Z " fill="#030303" transform="translate(624,717)"/>
</svg>
