<?xml version="1.0" standalone="no"?>
<!DOCTYPE svg PUBLIC "-//W3C//DTD SVG 20010904//EN"
 "http://www.w3.org/TR/2001/REC-SVG-20010904/DTD/svg10.dtd">
<svg version="1.0" xmlns="http://www.w3.org/2000/svg"
 width="1024.000000pt" height="1024.000000pt" viewBox="0 0 1024.000000 1024.000000"
 preserveAspectRatio="xMidYMid meet">

<g transform="translate(0.000000,1024.000000) scale(0.100000,-0.100000)"
fill="#000000" stroke="none">
<path d="M5580 9475 c-41 -8 -135 -32 -209 -55 -74 -22 -170 -45 -215 -52 -77
-11 -94 -9 -301 25 -382 63 -574 71 -843 32 -414 -59 -720 -269 -886 -609
-138 -281 -245 -741 -326 -1398 -16 -132 -32 -243 -35 -246 -2 -3 -71 -31
-153 -62 -261 -101 -501 -231 -679 -369 -167 -129 -227 -220 -226 -347 1 -143
70 -236 278 -372 56 -37 159 -96 228 -132 120 -61 127 -67 127 -95 0 -17 11
-96 25 -175 74 -425 207 -725 403 -912 78 -75 154 -122 265 -164 51 -20 95
-39 100 -43 4 -4 14 -50 22 -102 9 -52 27 -153 41 -226 30 -155 47 -111 -140
-363 -130 -175 -256 -358 -333 -481 -33 -53 -52 -72 -99 -99 -33 -19 -187
-110 -344 -203 -705 -420 -849 -510 -883 -550 -10 -12 -27 -40 -37 -63 -16
-33 -17 -47 -9 -77 12 -43 33 -57 85 -57 28 0 74 21 188 84 140 78 500 288
669 390 39 24 133 80 209 124 154 90 148 91 148 -18 0 -62 39 -620 80 -1165
13 -169 30 -215 105 -283 84 -77 368 -204 540 -242 59 -13 137 9 149 42 12 35
-31 127 -76 161 -19 15 -118 62 -222 106 -103 44 -198 86 -211 95 -14 9 -26
29 -30 48 -10 60 -45 426 -65 691 -44 565 -50 645 -50 726 0 97 7 112 140 311
107 159 135 193 147 177 6 -6 45 -100 88 -207 97 -243 168 -387 303 -610 251
-418 862 -1303 1313 -1900 137 -182 163 -209 213 -217 45 -7 78 19 107 83 17
37 17 46 5 81 -7 21 -29 64 -48 94 -20 29 -43 68 -52 86 l-16 32 116 238 c64
131 136 283 161 338 45 99 141 296 149 304 9 9 40 -31 133 -168 127 -189 219
-338 281 -456 60 -115 61 -128 20 -328 -16 -81 -30 -160 -30 -176 0 -37 53
-101 84 -101 28 0 81 33 100 62 19 29 133 444 175 635 36 166 112 619 140 843
l20 155 37 30 c21 17 73 61 116 98 66 58 79 65 84 50 4 -10 58 -138 121 -285
141 -334 243 -590 243 -614 0 -11 -55 -74 -131 -149 -135 -135 -150 -154 -167
-219 -10 -36 -9 -40 18 -67 60 -61 143 -32 291 101 217 196 245 237 236 335
-3 34 -19 97 -36 141 -44 119 -215 521 -283 669 -78 168 -83 183 -75 191 3 4
246 -122 539 -279 746 -399 771 -412 811 -401 21 7 38 21 51 45 18 32 18 41 7
82 -26 92 -49 108 -596 404 -132 72 -361 194 -510 272 -148 77 -276 145 -284
150 -10 7 -2 26 37 93 119 196 201 479 242 830 40 346 50 501 100 1488 5 107
10 344 10 525 l0 330 93 49 c342 183 657 382 775 492 126 116 162 234 108 350
-30 65 -78 104 -196 161 -138 66 -488 211 -685 283 -93 34 -202 77 -242 95
-60 29 -73 39 -81 67 -215 694 -342 1044 -467 1286 -94 180 -139 245 -238 349
-100 104 -176 155 -280 189 -73 24 -100 27 -247 30 -113 2 -188 -1 -240 -11z
m385 -231 c79 -20 129 -50 199 -121 108 -108 201 -276 311 -558 68 -174 129
-354 123 -360 -2 -2 -58 5 -123 16 -804 132 -1562 96 -2372 -111 -304 -77
-734 -219 -932 -306 -29 -13 -55 -24 -57 -24 -18 0 38 347 86 536 157 615 429
860 990 890 140 7 252 -2 560 -46 113 -16 228 -32 255 -35 81 -10 220 12 395
61 90 25 195 52 234 59 101 18 260 18 331 -1z m390 -1759 c94 -8 222 -24 285
-35 247 -44 682 -170 955 -278 l99 -39 -926 -8 c-509 -4 -963 -4 -1009 -1
-158 12 -1054 36 -1339 36 -305 0 -907 -15 -1055 -26 -49 -4 -87 -4 -84 0 4 4
53 20 110 37 373 107 835 198 1314 259 273 34 417 47 805 74 119 8 684 -4 845
-19z m-815 -570 c149 -11 407 -18 845 -21 347 -3 633 -9 636 -12 11 -13 41
-518 46 -792 6 -284 -7 -734 -32 -1173 -61 -1047 -88 -1279 -182 -1572 -40
-126 -90 -241 -100 -232 -3 4 -7 69 -8 144 -1 81 -7 151 -15 171 -13 36 -51
52 -75 32 -28 -23 -60 -168 -75 -345 -6 -66 -18 -169 -27 -228 -14 -95 -20
-116 -54 -166 -82 -123 -259 -238 -448 -289 -92 -25 -107 -26 -346 -26 -239
-1 -255 1 -369 28 -165 39 -268 76 -432 156 -147 72 -467 277 -629 403 -195
152 -412 358 -510 482 -150 191 -275 441 -327 654 -25 102 -27 194 -14 796 8
362 7 403 -7 432 -9 17 -26 35 -37 38 -29 9 -69 -19 -86 -61 -15 -35 -46 -284
-60 -467 -6 -83 -10 -100 -28 -112 -53 -38 -182 0 -274 80 -187 163 -360 605
-365 935 -2 106 0 122 31 210 40 116 84 180 147 210 119 58 250 -29 452 -302
52 -70 100 -128 105 -128 15 0 48 83 76 193 22 87 26 124 27 252 0 134 -2 155
-22 198 -47 101 -85 69 -122 -102 l-27 -121 -79 80 -80 81 92 182 c128 253
142 273 206 301 106 48 286 71 812 106 207 13 1106 4 1355 -15z m-2072 -3456
c116 -174 275 -348 467 -510 142 -121 200 -163 380 -281 330 -216 578 -338
893 -437 157 -50 162 -52 162 -79 0 -30 -65 -179 -247 -577 -66 -143 -132
-291 -146 -330 -40 -103 -43 -106 -73 -70 -105 124 -694 963 -906 1290 -25 39
-84 129 -130 201 -211 323 -339 552 -411 729 -75 185 -74 191 11 64z m2692
-1399 c-26 -214 -84 -592 -96 -630 -3 -8 -23 20 -50 70 -46 87 -258 412 -333
510 -45 59 -52 94 -22 110 11 5 62 10 113 10 124 0 247 16 327 43 65 22 66 22
69 2 2 -10 -1 -62 -8 -115z"/>
<path d="M6375 6604 c-190 -26 -263 -47 -315 -91 -36 -30 -39 -64 -10 -111 33
-54 51 -57 217 -38 81 9 169 16 195 16 73 0 185 -19 275 -48 68 -21 87 -23
108 -14 21 10 25 18 25 54 0 70 -26 107 -105 150 -38 21 -98 47 -132 57 -61
20 -200 33 -258 25z"/>
<path d="M4695 6555 c-111 -20 -216 -51 -315 -94 -158 -68 -210 -116 -210
-192 0 -83 71 -88 258 -18 178 67 320 91 572 96 122 3 220 9 227 15 7 6 18 28
24 50 22 82 -29 128 -166 147 -95 14 -304 12 -390 -4z"/>
<path d="M5887 6111 c-42 -47 -57 -106 -57 -229 1 -123 24 -214 145 -566 111
-326 141 -448 124 -509 -19 -71 -133 -147 -234 -154 -51 -4 -74 0 -160 32 -90
33 -114 38 -245 45 -139 8 -146 10 -167 35 -29 33 -29 74 -3 150 29 85 26 117
-14 159 -18 20 -42 36 -54 36 -23 0 -69 -50 -108 -117 -15 -26 -67 -97 -114
-158 -252 -321 -410 -594 -427 -736 l-6 -49 32 0 c48 0 105 59 281 295 87 116
169 221 184 234 l26 24 72 -38 c99 -51 112 -54 278 -64 137 -9 151 -11 245
-50 97 -39 102 -40 165 -31 72 10 116 23 238 69 46 17 97 31 115 31 83 0 217
-115 307 -263 52 -86 108 -147 133 -147 7 0 23 7 35 16 19 13 22 24 22 77 -1
81 -27 144 -120 282 -89 134 -109 156 -182 206 -63 43 -64 46 -71 159 -4 63
-28 145 -145 495 -169 508 -180 547 -164 625 16 74 15 105 -3 139 -28 55 -79
56 -128 2z"/>
<path d="M4774 6081 c-81 -22 -168 -63 -267 -127 -76 -50 -157 -121 -157 -139
0 -19 35 -45 61 -45 34 0 147 37 184 60 49 30 83 26 103 -11 60 -110 148 -146
247 -100 57 26 83 62 118 164 6 16 12 14 58 -18 53 -36 104 -46 127 -23 7 7
12 29 12 49 0 31 -10 49 -56 104 -78 92 -95 99 -239 102 -94 2 -136 -1 -191
-16z"/>
<path d="M6291 6084 c-86 -23 -119 -52 -187 -169 -29 -48 -33 -64 -25 -81 10
-23 10 -23 117 1 16 3 23 -3 32 -28 16 -43 70 -95 117 -111 74 -26 153 16 205
107 16 29 33 58 37 64 6 10 27 5 88 -22 44 -20 96 -35 117 -35 32 0 39 4 44
27 4 16 2 36 -7 52 -34 60 -219 169 -330 196 -79 18 -138 18 -208 -1z"/>
<path d="M2758 5934 c-63 -34 -62 -74 3 -155 74 -93 139 -226 139 -286 0 -60
18 -137 54 -231 22 -56 35 -76 57 -88 34 -17 58 -12 84 16 15 17 16 28 6 102
-6 46 -15 128 -21 183 -17 175 -43 249 -127 358 -45 58 -122 117 -152 117 -9
-1 -28 -7 -43 -16z"/>
<path d="M3687 4732 c-26 -27 -35 -67 -50 -207 -6 -60 12 -291 29 -364 18 -79
68 -187 91 -195 9 -4 23 0 32 9 13 13 16 42 16 163 0 220 -21 531 -39 574 -12
29 -32 48 -50 48 -1 0 -14 -12 -29 -28z"/>
<path d="M4040 4293 c-42 -39 -55 -130 -46 -329 8 -186 19 -259 51 -329 26
-60 43 -72 73 -56 41 22 44 51 35 385 l-8 317 -25 19 c-33 26 -44 25 -80 -7z"/>
<path d="M5970 4130 c-129 -23 -236 -24 -315 -5 -33 8 -105 14 -160 14 -129 1
-360 -32 -425 -60 -69 -30 -114 -83 -139 -164 -33 -107 -27 -145 24 -145 13 0
131 77 170 110 26 22 181 61 268 67 46 3 92 -1 139 -13 83 -20 227 -16 378 11
161 29 289 7 385 -65 97 -72 108 -80 117 -80 5 0 23 13 39 29 51 51 38 131
-33 198 -63 60 -227 124 -313 122 -16 -1 -77 -9 -135 -19z"/>
<path d="M4386 3737 c-9 -12 -21 -54 -28 -94 -25 -146 38 -416 106 -453 25
-14 28 -14 46 10 26 34 25 108 -4 329 l-22 174 -34 29 c-41 34 -45 34 -64 5z"/>
<path d="M5561 3682 c-115 -42 -139 -90 -63 -128 34 -18 69 -23 176 -29 162
-9 227 6 276 62 36 40 36 45 8 77 -22 24 -28 25 -183 31 -142 5 -166 3 -214
-13z"/>
<path d="M4785 3325 c-9 -20 -18 -49 -22 -66 -6 -32 15 -146 28 -155 5 -3 9
-29 9 -57 0 -106 86 -232 154 -225 25 2 32 8 34 30 3 26 -33 171 -69 275 -10
31 -19 66 -19 77 0 25 -70 148 -88 154 -7 2 -19 -12 -27 -33z"/>
<path d="M5213 3064 c-10 -26 34 -221 65 -288 27 -58 61 -93 105 -109 25 -9
46 2 63 34 14 27 12 33 -25 108 -22 43 -49 108 -61 144 -15 47 -31 75 -56 97
-37 32 -81 40 -91 14z"/>
<path d="M6225 3041 c-8 -16 -26 -67 -39 -113 -13 -45 -29 -96 -35 -111 -25
-64 -5 -167 32 -167 7 0 32 20 55 43 52 53 71 108 79 232 5 82 4 92 -17 118
-28 35 -56 35 -75 -2z"/>
</g>
</svg>
